<?xml version="1.0" encoding="utf-8"?>
<!-- Generator: Adobe Illustrator 18.0.0, SVG Export Plug-In . SVG Version: 6.00 Build 0)  -->
<!DOCTYPE svg PUBLIC "-//W3C//DTD SVG 1.1//EN" "http://www.w3.org/Graphics/SVG/1.1/DTD/svg11.dtd">
<svg version="1.1" id="Icon_Set" xmlns="http://www.w3.org/2000/svg" xmlns:xlink="http://www.w3.org/1999/xlink" x="0px" y="0px"
	 viewBox="0 0 256 256" style="enable-background:new 0 0 256 256;" xml:space="preserve">
<style type="text/css">
	.st0{fill:#4C4372;}
	.st1{fill:#F0C48A;}
	.st2{fill:#FD919E;}
	.st3{fill:#D3E6F8;}
	.st4{fill:#A4CFF2;}
	.st5{fill:#FFFFFF;}
	.st6{fill:#7BABF1;}
	.st7{fill:#E8677D;}
</style>
<g>
	<g>
		<circle class="st1" cx="128" cy="128" r="103.5"/>
	</g>
	<g>
		<circle class="st2" cx="128" cy="227.982" r="8.884"/>
	</g>
	<g>
		<path class="st0" d="M128,222.099c-1.657,0-3-1.343-3-3v-35.878c0-1.657,1.343-3,3-3s3,1.343,3,3v35.878
			C131,220.756,129.657,222.099,128,222.099z"/>
	</g>
	<g>
		<path class="st0" d="M128,239.867c-6.553,0-11.884-5.331-11.884-11.885c0-6.553,5.331-11.884,11.884-11.884
			c6.554,0,11.885,5.331,11.885,11.884C139.885,234.536,134.554,239.867,128,239.867z M128,222.099c-3.244,0-5.884,2.64-5.884,5.884
			c0,3.245,2.64,5.885,5.884,5.885c3.245,0,5.885-2.64,5.885-5.885C133.885,224.738,131.245,222.099,128,222.099z"/>
	</g>
	<g>
		<g>
			<circle class="st2" cx="156.46" cy="212.01" r="8.884"/>
		</g>
		<g>
			<path class="st0" d="M156.461,223.894c-6.554,0-11.885-5.331-11.885-11.884c0-6.554,5.331-11.885,11.885-11.885
				c6.553,0,11.884,5.331,11.884,11.885C168.345,218.563,163.014,223.894,156.461,223.894z M156.461,206.125
				c-3.245,0-5.885,2.64-5.885,5.885c0,3.244,2.64,5.884,5.885,5.884c3.244,0,5.884-2.64,5.884-5.884
				C162.345,208.765,159.705,206.125,156.461,206.125z"/>
		</g>
		<g>
			<circle class="st2" cx="99.539" cy="212.01" r="8.884"/>
		</g>
		<g>
			<path class="st0" d="M99.539,223.894c-6.553,0-11.884-5.331-11.884-11.884c0-6.554,5.331-11.885,11.884-11.885
				s11.884,5.331,11.884,11.885C111.423,218.563,106.092,223.894,99.539,223.894z M99.539,206.125c-3.244,0-5.884,2.64-5.884,5.885
				c0,3.244,2.64,5.884,5.884,5.884s5.884-2.64,5.884-5.884C105.423,208.765,102.783,206.125,99.539,206.125z"/>
		</g>
	</g>
	<g>
		<path class="st0" d="M156.461,206.125c-1.657,0-3-1.343-3-3v-7.326h-50.922v7.326c0,1.657-1.343,3-3,3s-3-1.343-3-3v-10.326
			c0-1.657,1.343-3,3-3h56.922c1.657,0,3,1.343,3,3v10.326C159.461,204.782,158.118,206.125,156.461,206.125z"/>
	</g>
	<g>
		<path class="st3" d="M179.611,70.744c0-29.823-25.296-53.738-55.603-51.461C98.51,21.2,78.06,41.959,76.489,67.481
			c-1.189,19.315,8.257,36.511,23.036,46.306c3.57,2.366,5.721,6.359,5.721,10.643v13.461h45.507v-13.457
			c0-4.318,2.206-8.307,5.8-10.699C170.45,104.488,179.611,88.688,179.611,70.744z"/>
	</g>
	<g>
		<path class="st4" d="M141.602,20.963c16.635,8.568,28.02,25.897,28.02,45.896c0,17.943-9.161,33.743-23.059,42.99
			c-3.595,2.392-5.8,6.381-5.8,10.698v17.343h9.99v-13.458c0-4.317,2.206-8.306,5.8-10.698c13.897-9.246,23.059-25.046,23.059-42.99
			C179.611,46.95,163.503,26.934,141.602,20.963z"/>
	</g>
	<g>
		<g>
			<path class="st5" d="M153.133,154.258h-50.266c-4.519,0-8.183-3.664-8.183-8.184l0,0c0-4.52,3.664-8.184,8.183-8.184h50.266
				c4.519,0,8.183,3.664,8.183,8.184l0,0C161.315,150.594,157.651,154.258,153.133,154.258z"/>
		</g>
		<g>
			<path class="st5" d="M128,183.221L128,183.221c-12.566,0-22.754-10.188-22.754-22.754v-6.209h45.507v6.209
				C150.753,173.033,140.566,183.221,128,183.221z"/>
		</g>
		<g>
			<path class="st3" d="M140.191,154.258v6.209c0,10.748-7.454,19.748-17.473,22.131c1.695,0.402,3.462,0.623,5.281,0.623l0,0
				c12.566,0,22.753-10.188,22.753-22.754v-6.209H140.191z"/>
		</g>
		<g>
			<path class="st3" d="M153.133,137.891h-18.297c4.52,0,8.184,3.664,8.184,8.184l0,0c0,4.52-3.664,8.184-8.184,8.184h18.297
				c4.519,0,8.183-3.664,8.183-8.184l0,0C161.315,141.555,157.651,137.891,153.133,137.891z"/>
		</g>
		<g>
			<path class="st0" d="M128,186.221c-14.201,0-25.754-11.553-25.754-25.754v-6.209c0-1.657,1.343-3,3-3h45.507c1.657,0,3,1.343,3,3
				v6.209C153.753,174.668,142.2,186.221,128,186.221z M108.246,157.258v3.209c0,10.893,8.861,19.754,19.754,19.754
				c10.892,0,19.753-8.861,19.753-19.754v-3.209H108.246z"/>
		</g>
		<g>
			<path class="st0" d="M153.133,157.258h-50.266c-6.166,0-11.183-5.017-11.183-11.184s5.017-11.184,11.183-11.184h50.266
				c6.166,0,11.183,5.017,11.183,11.184S159.299,157.258,153.133,157.258z M102.867,140.891c-2.857,0-5.183,2.325-5.183,5.184
				s2.325,5.184,5.183,5.184h50.266c2.857,0,5.183-2.325,5.183-5.184s-2.325-5.184-5.183-5.184H102.867z"/>
		</g>
	</g>
	<g>
		<g>
			<g>
				<path class="st0" d="M122.373,116.479h-7.215c-5.632,0-10.214-4.582-10.214-10.215s4.582-10.215,10.214-10.215
					c5.633,0,10.215,4.582,10.215,10.215v7.215C125.373,115.136,124.03,116.479,122.373,116.479z M115.158,102.049
					c-2.323,0-4.214,1.891-4.214,4.215s1.891,4.215,4.214,4.215h4.215v-4.215C119.373,103.939,117.482,102.049,115.158,102.049z"/>
			</g>
			<g>
				<path class="st0" d="M140.842,116.479h-7.215c-1.657,0-3-1.343-3-3v-7.215c0-5.633,4.582-10.215,10.215-10.215
					c5.632,0,10.214,4.582,10.214,10.215S146.474,116.479,140.842,116.479z M136.627,110.479h4.215c2.323,0,4.214-1.891,4.214-4.215
					s-1.891-4.215-4.214-4.215c-2.324,0-4.215,1.891-4.215,4.215V110.479z"/>
			</g>
		</g>
		<g>
			<path class="st0" d="M133.627,140.891c-1.657,0-3-1.343-3-3v-21.412h-5.254v21.412c0,1.657-1.343,3-3,3s-3-1.343-3-3v-24.412
				c0-1.657,1.343-3,3-3h11.254c1.657,0,3,1.343,3,3v24.412C136.627,139.548,135.284,140.891,133.627,140.891z"/>
		</g>
	</g>
	<g>
		<path class="st0" d="M150.753,140.891h-45.507c-1.657,0-3-1.343-3-3V124.43c0-3.281-1.637-6.325-4.378-8.142
			c-16.231-10.758-25.57-29.529-24.373-48.991c1.664-27.047,23.283-48.975,50.289-51.005c1.4-0.105,2.819-0.159,4.215-0.159
			c30.113,0,54.612,24.499,54.612,54.611c0,18.319-9.12,35.324-24.396,45.488c-2.794,1.859-4.462,4.926-4.462,8.201v13.457
			C153.753,139.548,152.41,140.891,150.753,140.891z M108.246,134.891h39.507v-10.457c0-5.288,2.668-10.221,7.138-13.196
			c13.601-9.049,21.721-24.187,21.721-40.493c0-26.805-21.808-48.611-48.612-48.611c-1.246,0-2.514,0.048-3.766,0.142
			c-24.03,1.807-43.269,21.321-44.75,45.392c-1.066,17.329,7.249,34.043,21.699,43.62c4.423,2.932,7.063,7.845,7.063,13.144V134.891
			z"/>
	</g>
	<g>
		<path class="st2" d="M160.921,64.78v-8.874h-8.512c-0.641-3.548-2.033-6.834-4.012-9.686l6.018-6.018l-6.275-6.275l-6.018,6.019
			c-2.852-1.979-6.138-3.371-9.687-4.013v-8.511h-8.873v8.511c-3.549,0.642-6.835,2.034-9.687,4.013l-6.019-6.019l-6.274,6.275
			l6.019,6.018c-1.979,2.852-3.371,6.138-4.012,9.686h-8.512v8.874h8.512c0.641,3.549,2.033,6.835,4.012,9.687l-6.019,6.018
			l6.274,6.275l6.019-6.019c2.852,1.979,6.138,3.371,9.687,4.012v8.512h8.873v-8.511c3.549-0.642,6.835-2.034,9.687-4.013
			l6.018,6.019l6.275-6.275l-6.018-6.018c1.979-2.852,3.371-6.138,4.012-9.687H160.921z M128,73.418
			c-7.221,0-13.074-5.854-13.074-13.074c0-7.221,5.854-13.074,13.074-13.074s13.074,5.854,13.074,13.074
			C141.074,67.564,135.221,73.418,128,73.418z"/>
	</g>
	<g>
		<path class="st0" d="M132.437,96.265h-8.873c-1.657,0-3-1.343-3-3v-6.12c-2.189-0.604-4.28-1.47-6.256-2.591l-4.328,4.327
			c-0.563,0.563-1.325,0.879-2.121,0.879l0,0c-0.796,0-1.559-0.316-2.121-0.879l-6.274-6.275c-0.563-0.563-0.879-1.325-0.879-2.121
			s0.316-1.559,0.879-2.121l4.327-4.327c-1.121-1.976-1.987-4.066-2.591-6.256h-6.12c-1.657,0-3-1.343-3-3v-8.874
			c0-1.657,1.343-3,3-3h6.12c0.604-2.188,1.47-4.279,2.591-6.255l-4.327-4.327c-0.563-0.563-0.879-1.325-0.879-2.121
			s0.316-1.559,0.879-2.121l6.274-6.275c1.125-1.125,3.117-1.125,4.242,0l4.328,4.327c1.975-1.121,4.066-1.987,6.256-2.591v-6.12
			c0-1.657,1.343-3,3-3h8.873c1.657,0,3,1.343,3,3v6.12c2.189,0.604,4.281,1.47,6.256,2.591l4.327-4.327
			c1.125-1.125,3.117-1.125,4.242,0l6.275,6.275c0.563,0.563,0.879,1.325,0.879,2.121s-0.316,1.559-0.879,2.121l-4.327,4.327
			c1.121,1.976,1.987,4.066,2.591,6.255h6.12c1.657,0,3,1.343,3,3v8.874c0,1.657-1.343,3-3,3h-6.12
			c-0.604,2.189-1.47,4.28-2.591,6.256l4.327,4.327c0.563,0.563,0.879,1.325,0.879,2.121s-0.316,1.559-0.879,2.121l-6.275,6.275
			c-0.563,0.563-1.325,0.879-2.121,0.879l0,0c-0.796,0-1.559-0.316-2.121-0.879l-4.327-4.327c-1.975,1.121-4.066,1.987-6.256,2.591
			v6.12C135.437,94.922,134.094,96.265,132.437,96.265z M126.563,90.265h2.873v-5.511c0-1.451,1.038-2.694,2.466-2.952
			c3.078-0.557,5.94-1.742,8.511-3.525c1.191-0.829,2.806-0.683,3.831,0.344l3.896,3.896l2.032-2.032l-3.896-3.896
			c-1.026-1.025-1.171-2.639-0.344-3.831c1.783-2.57,2.969-5.434,3.524-8.51c0.258-1.428,1.501-2.467,2.952-2.467h5.512v-2.874
			h-5.512c-1.451,0-2.694-1.039-2.952-2.467c-0.556-3.076-1.741-5.938-3.524-8.509c-0.827-1.192-0.683-2.806,0.344-3.831
			l3.896-3.896l-2.032-2.032l-3.896,3.896c-1.025,1.025-2.64,1.171-3.831,0.344c-2.57-1.783-5.433-2.969-8.511-3.525
			c-1.428-0.258-2.466-1.501-2.466-2.952v-5.511h-2.873v5.511c0,1.451-1.038,2.694-2.466,2.952c-3.078,0.557-5.94,1.742-8.511,3.525
			c-1.192,0.826-2.806,0.683-3.831-0.344l-3.897-3.896l-2.032,2.032l3.897,3.896c1.026,1.025,1.171,2.639,0.344,3.831
			c-1.783,2.57-2.969,5.433-3.524,8.509c-0.258,1.428-1.501,2.467-2.952,2.467h-5.512v2.874h5.512c1.451,0,2.694,1.039,2.952,2.467
			c0.556,3.076,1.741,5.939,3.524,8.51c0.827,1.192,0.683,2.806-0.344,3.831l-3.897,3.896l2.032,2.032l3.897-3.896
			c1.025-1.025,2.639-1.172,3.831-0.344c2.57,1.783,5.434,2.969,8.51,3.524c1.428,0.258,2.467,1.501,2.467,2.952V90.265z
			 M128,76.418c-8.863,0-16.074-7.211-16.074-16.074S119.137,44.27,128,44.27s16.074,7.211,16.074,16.074S136.863,76.418,128,76.418
			z M128,50.27c-5.555,0-10.074,4.52-10.074,10.074s4.52,10.074,10.074,10.074s10.074-4.52,10.074-10.074S133.555,50.27,128,50.27z"
			/>
	</g>
</g>
</svg>
