<?xml version="1.0" encoding="iso-8859-1"?>
<!-- Generator: Adobe Illustrator 19.0.0, SVG Export Plug-In . SVG Version: 6.00 Build 0)  -->
<svg xmlns="http://www.w3.org/2000/svg" xmlns:xlink="http://www.w3.org/1999/xlink" version="1.1" id="Layer_1" x="0px" y="0px" viewBox="0 0 511.999 511.999" style="enable-background:new 0 0 511.999 511.999;" xml:space="preserve">
<g>
	<polygon style="fill:#ACAAB1;" points="360.413,317.965 397.644,280.733 379.696,262.785 324.527,317.954 324.542,317.969    324.531,317.981 379.7,373.15 397.649,355.202  "/>
	<polygon style="fill:#ACAAB1;" points="468.538,317.965 431.305,280.733 449.254,262.785 504.424,317.954 504.408,317.969    504.419,317.981 449.25,373.15 431.301,355.202  "/>
</g>
<g style="opacity:0.4;">
	<polygon style="fill:#3E3B43;" points="379.696,262.785 345.954,296.527 381.851,296.527 397.644,280.733  "/>
	<polygon style="fill:#3E3B43;" points="449.254,262.785 431.305,280.733 447.1,296.527 482.997,296.527  "/>
</g>
<g>
	<rect x="301.308" y="88.946" style="fill:#77757E;" width="82.088" height="35.002"/>
	<path style="fill:#77757E;" d="M307.676,147.401h-86.633V65.495h86.633c2.968,0,5.374,2.406,5.374,5.374v71.158   C313.05,144.995,310.644,147.401,307.676,147.401z"/>
</g>
<g>
	<rect x="391.073" y="139.951" style="fill:#3E3B43;" width="46.812" height="40.609"/>
	<path style="fill:#3E3B43;" d="M451.426,185.805v67.633c0,20.579-16.838,37.417-37.417,37.417l0,0   c-20.579,0-37.417-16.838-37.417-37.417v-67.633H451.426z"/>
	<rect x="83.017" y="322.733" style="fill:#3E3B43;" width="94.967" height="78.875"/>
	<rect x="64.376" y="393.083" style="fill:#3E3B43;" width="132.263" height="52.414"/>
</g>
<path style="fill:#4E8FE3;" d="M212.953,180.56h-165.7c-10.005,0-18.191-8.186-18.191-18.191V50.527  c0-10.005,8.186-18.191,18.191-18.191h165.7c10.005,0,18.191,8.186,18.191,18.191V162.37  C231.144,172.375,222.959,180.56,212.953,180.56z"/>
<path style="fill:#FFE477;" d="M442.03,147.078h-71.09V65.818h71.09c18.825,0,34.228,15.402,34.228,34.228v12.803  C476.258,131.675,460.855,147.078,442.03,147.078z"/>
<path style="fill:#FFDA44;" d="M442.03,65.818h-21.142c18.825,0,34.228,15.402,34.228,34.228v12.804  c0,18.825-15.402,34.228-34.228,34.228h21.142c18.825,0,34.228-15.402,34.228-34.228v-12.804  C476.258,81.221,460.855,65.818,442.03,65.818z"/>
<rect x="366.091" y="176.257" style="fill:#FFE477;" width="95.725" height="28.386"/>
<g>
	<rect x="54.004" y="169.579" style="fill:#4E8FE3;" width="153.013" height="163.983"/>
	<rect x="7.576" y="436.874" style="fill:#4E8FE3;" width="245.859" height="42.781"/>
</g>
<g>
	<rect x="84.148" y="208.754" style="fill:#FFF5CC;" width="31.206" height="91.412"/>
	<rect x="146.78" y="208.754" style="fill:#FFF5CC;" width="31.206" height="91.412"/>
</g>
<g>
	<circle style="fill:#315591;" cx="82.209" cy="105.827" r="18.244"/>
	<circle style="fill:#315591;" cx="144.658" cy="105.827" r="18.244"/>
</g>
<g>
	<rect x="84.148" y="271.578" style="fill:#FFE477;" width="31.206" height="28.588"/>
	<rect x="146.78" y="271.578" style="fill:#FFE477;" width="31.206" height="28.588"/>
</g>
<path style="fill:#4675CF;" d="M212.953,180.56h-165.7c-10.005,0-18.191-8.186-18.191-18.191l0,0  c0-10.005,8.186-18.191,18.191-18.191h165.7c10.005,0,18.191,8.186,18.191,18.191l0,0  C231.144,172.375,222.959,180.56,212.953,180.56z"/>
<circle style="fill:#3E3B43;" cx="421.55" cy="106.443" r="16.224"/>
<g>
	<rect x="54.004" y="180.56" style="fill:#315591;" width="153.013" height="18.758"/>
	<rect x="7.576" y="460.311" style="fill:#315591;" width="245.859" height="19.355"/>
</g>
<g>
	<rect x="83.017" y="333.573" style="fill:#2F2D30;" width="94.967" height="20.092"/>
	<rect x="231.14" y="65.823" style="opacity:0.38;fill:#2F2D30;enable-background:new    ;" width="20.092" height="81.259"/>
	<rect x="313.046" y="88.916" style="opacity:0.38;fill:#2F2D30;enable-background:new    ;" width="20.092" height="35.036"/>
</g>
<rect x="430.702" y="176.257" style="fill:#FFDA44;" width="31.119" height="28.386"/>
<g>
	<path style="fill:#231F20;" d="M423.599,130.252c13.125,0,23.804-10.679,23.804-23.804s-10.679-23.804-23.804-23.804   c-13.125,0-23.804,10.679-23.804,23.804S410.473,130.252,423.599,130.252z M423.599,97.797c4.77,0,8.651,3.881,8.651,8.651   c0,4.77-3.881,8.651-8.651,8.651c-4.77,0-8.651-3.881-8.651-8.651C414.947,101.678,418.829,97.797,423.599,97.797z"/>
	<path style="fill:#231F20;" d="M509.781,312.597l-53.596-53.596c1.819-4.881,2.818-10.158,2.818-15.665v-31.124h2.819   c4.184,0,7.576-3.392,7.576-7.576v-28.382c0-4.184-3.392-7.576-7.576-7.576h-16.366v-14.176   c21.453-1.75,38.379-19.755,38.379-41.652v-12.803c0-23.05-18.753-41.803-41.804-41.803H370.94c-4.184,0-7.576,3.392-7.576,7.576   V81.37h-42.737V70.869c0-7.141-5.81-12.951-12.951-12.951h-68.955v-7.392c0-14.208-11.56-25.768-25.768-25.768h-165.7   c-14.208,0-25.768,11.56-25.768,25.768V162.37c0,13.93,11.113,25.306,24.938,25.747v145.454c0,4.184,3.392,7.576,7.576,7.576   h21.445v44.362h-11.07c-4.184,0-7.576,3.392-7.576,7.576v36.215H7.576c-4.184,0-7.576,3.392-7.576,7.576v42.786   c0,4.184,3.392,7.576,7.576,7.576h245.857c4.184,0,7.576-3.392,7.576-7.576v-42.786c0-4.184-3.392-7.576-7.576-7.576H204.21   v-36.215c0-4.184-3.392-7.576-7.576-7.576h-11.07v-44.362h21.445c4.184,0,7.576-3.392,7.576-7.576V188.08   c13.45-0.847,24.134-12.052,24.134-25.71v-7.392h68.955c7.141,0,12.951-5.81,12.951-12.951v-10.502h42.738v15.552   c0,4.184,3.392,7.576,7.576,7.576h12.555v14.023h-17.401c-4.184,0-7.576,3.392-7.576,7.576v28.382c0,4.184,3.392,7.576,7.576,7.576   h2.922v31.124c0,5.761,1.1,11.266,3.082,16.333l-52.929,52.929c-1.142,1.142-1.876,2.615-2.121,4.192   c-0.367,2.314,0.341,4.765,2.125,6.549l55.169,55.169c1.479,1.479,3.418,2.219,5.357,2.219c1.939,0,3.878-0.739,5.357-2.219   l17.949-17.949c2.959-2.959,2.959-7.756,0-10.714l-31.879-31.879l31.186-31.186c3.732,1.006,7.65,1.552,11.696,1.552   c4.308,0,8.472-0.621,12.42-1.758l31.394,31.393l-31.879,31.879c-2.959,2.959-2.959,7.756,0,10.714l17.949,17.949   c1.479,1.479,3.418,2.219,5.357,2.219c1.939,0,3.878-0.739,5.357-2.219l55.169-55.169c0.921-0.921,1.555-2.022,1.901-3.192   C512.457,317.56,511.824,314.64,509.781,312.597z M245.857,472.087H15.153v-27.634h230.704V472.087z M189.057,428.296H71.952   v-27.634h117.106v27.634H189.057z M170.412,384.504H90.597v-43.357h79.815V384.504z M199.434,325.994h-21.445H83.021H61.577   V188.136h137.857V325.994z M223.568,162.369c0,5.853-4.762,10.615-10.615,10.615h-5.943H54h-6.747   c-5.853,0-10.615-4.762-10.615-10.615V50.527c0-5.853,4.762-10.615,10.615-10.615h165.7c5.853,0,10.615,4.762,10.615,10.615v20.342   v71.157V162.369z M305.474,139.824h-66.753V73.071h66.753v15.875v35.003V139.824z M320.627,116.373v-19.85h42.737v19.85H320.627z    M378.516,123.949V88.946V73.395h63.513c14.695,0,26.652,11.956,26.652,26.651v12.804c0,14.695-11.956,26.651-26.652,26.651h-4.151   h-46.808h-12.555V123.949z M430.302,154.654v13.23h-31.655v-13.23H430.302z M373.67,183.83h80.575v13.229H373.67V183.83z    M355.056,312.608c-2.959,2.959-2.959,7.756,0,10.714l31.879,31.879l-7.234,7.234l-44.469-44.469l44.466-44.466l7.234,7.234   L355.056,312.608z M384.169,243.336v-31.124h59.681v31.124c0,16.455-13.386,29.841-29.841,29.841   C397.554,273.177,384.169,259.79,384.169,243.336z M449.25,362.436l-7.234-7.234l31.879-31.879c2.959-2.959,2.959-7.756,0-10.714   l-31.874-31.874l7.234-7.234l44.466,44.466L449.25,362.436z"/>
	<path style="fill:#231F20;" d="M84.144,307.741h31.206c4.184,0,7.576-3.392,7.576-7.576v-91.416c0-4.184-3.392-7.576-7.576-7.576   H84.144c-4.184,0-7.576,3.392-7.576,7.576v91.416C76.568,304.349,79.96,307.741,84.144,307.741z M91.721,216.326h16.053v76.263   H91.721V216.326z"/>
	<path style="fill:#231F20;" d="M146.783,307.741h31.206c4.184,0,7.576-3.392,7.576-7.576v-91.416c0-4.184-3.392-7.576-7.576-7.576   h-31.206c-4.184,0-7.576,3.392-7.576,7.576v91.416C139.206,304.349,142.599,307.741,146.783,307.741z M154.359,216.326h16.053   v76.263h-16.053V216.326z"/>
	<path style="fill:#231F20;" d="M82.204,80.003c-14.237,0-25.819,11.583-25.819,25.819c0,14.238,11.583,25.82,25.819,25.82   c14.238,0,25.82-11.583,25.82-25.82C108.024,91.586,96.441,80.003,82.204,80.003z M82.204,116.49   c-5.881,0-10.667-4.785-10.667-10.668c0-5.881,4.785-10.667,10.667-10.667c5.882,0,10.668,4.785,10.668,10.667   C92.871,111.705,88.086,116.49,82.204,116.49z"/>
	<path style="fill:#231F20;" d="M144.662,80.003c-14.238,0-25.82,11.583-25.82,25.819c0,14.238,11.583,25.82,25.82,25.82   s25.82-11.583,25.82-25.82C170.483,91.586,158.9,80.003,144.662,80.003z M144.662,116.49c-5.882,0-10.668-4.785-10.668-10.668   c0-5.881,4.785-10.667,10.668-10.667s10.668,4.785,10.668,10.667C155.33,111.705,150.545,116.49,144.662,116.49z"/>
</g>
<g>
</g>
<g>
</g>
<g>
</g>
<g>
</g>
<g>
</g>
<g>
</g>
<g>
</g>
<g>
</g>
<g>
</g>
<g>
</g>
<g>
</g>
<g>
</g>
<g>
</g>
<g>
</g>
<g>
</g>
</svg>
