<svg xmlns="http://www.w3.org/2000/svg" viewBox="0 0 64 64"><defs><style>.cls-1{fill:#ffd24f;}.cls-2{fill:#2d91c0;}.cls-3{fill:#7c828d;}.cls-4{fill:#ffd7a3;}.cls-5{fill:#29394a;}</style></defs><title>14-robot arms</title><g id="_14-robot_arms" data-name="14-robot arms"><path class="cls-1" d="M62,37V48l-.17.17a4.008,4.008,0,0,0-5.66,0L56,48V37a3,3,0,0,0,6,0Z"/><path class="cls-1" d="M59,34a3,3,0,0,0-3,3l-6-6a3,3,0,0,0,3-3Z"/><path class="cls-1" d="M8,27l6,6a3,3,0,0,0-3,3L5,30A3,3,0,0,0,8,27Z"/><path class="cls-1" d="M8,16V27a3,3,0,0,0-6,0V16l.17-.17a4.008,4.008,0,0,0,5.66,0Z"/><circle class="cls-2" cx="42" cy="22" r="2"/><circle class="cls-2" cx="59" cy="37" r="3"/><path class="cls-2" d="M47.88,25.88A3,3,0,1,1,47,28,2.993,2.993,0,0,1,47.88,25.88Z"/><path class="cls-2" d="M16.12,38.12A3,3,0,1,1,17,36,2.993,2.993,0,0,1,16.12,38.12Z"/><circle class="cls-2" cx="5" cy="27" r="3"/><path class="cls-2" d="M5,17a3.995,3.995,0,0,1-4-4V5H9v8a3.995,3.995,0,0,1-4,4Z"/><path class="cls-2" d="M59,47a3.995,3.995,0,0,1,4,4v8H55V51a3.995,3.995,0,0,1,4-4Z"/><polygon class="cls-3" points="63 1 63 5 33 5 27 5 21 5 15 5 9 5 1 5 1 1 63 1"/><polygon class="cls-3" points="63 59 63 63 1 63 1 59 17 59 29 59 35 59 47 59 55 59 63 59"/><rect class="cls-3" x="21" y="47" width="4" height="6"/><rect class="cls-3" x="39" y="47" width="4" height="6"/><rect class="cls-3" x="30" y="35" width="4" height="6"/><polygon class="cls-4" points="26 47 29 47 29 59 17 59 17 47 21 47 21 53 25 53 25 47 26 47"/><polygon class="cls-4" points="39 47 39 53 43 53 43 47 47 47 47 59 35 59 35 47 38 47 39 47"/><polygon class="cls-4" points="38 35 38 47 35 47 29 47 26 47 26 35 30 35 30 41 34 41 34 35 38 35"/><path class="cls-5" d="M63,48V37a3.99,3.99,0,0,0-3.539-3.953l-5.508-5.508a3.957,3.957,0,0,0-5.973-2.974l-3.027-3.026A2.991,2.991,0,0,0,43,19.184V18a1,1,0,0,0-1-1H36v2h5v.184a2.982,2.982,0,0,0,0,5.632V25H36v2h6a1,1,0,0,0,1-1V24.816A2.991,2.991,0,0,0,44.385,23.8l2.18,2.18a3.958,3.958,0,0,0,2.974,5.974L55,37.414V48h.025A4.974,4.974,0,0,0,54,51v7H48V47a1,1,0,0,0-1-1H39V35a1,1,0,0,0-1-1H26a1,1,0,0,0-1,1V46H17a1,1,0,0,0-1,1V58H1a1,1,0,0,0-1,1v4a1,1,0,0,0,1,1H63a1,1,0,0,0,1-1V51a4.977,4.977,0,0,0-1.026-3Zm-4-2a4.979,4.979,0,0,0-2,.427V40.444a3.875,3.875,0,0,0,4,0v5.983A4.979,4.979,0,0,0,59,46Zm2.118,2.872A3.018,3.018,0,0,1,62,51v7H56V51a3.022,3.022,0,0,1,.877-2.123A3.088,3.088,0,0,1,61.118,48.872ZM53.494,29.908l3.6,3.6a4.006,4.006,0,0,0-1.586,1.586l-3.6-3.6A4.006,4.006,0,0,0,53.494,29.908ZM61,37a2,2,0,1,1-2-2A2,2,0,0,1,61,37ZM42,23a1,1,0,1,1,1-1A1,1,0,0,1,42,23Zm6,5a2,2,0,1,1,2,2A1.983,1.983,0,0,1,48,28ZM46,58H36V48h2v5a1,1,0,0,0,1,1h4a1,1,0,0,0,1-1V48h2ZM30,48h4V58H30Zm10,0h2v4H40ZM31,36h2v4H31Zm-4,0h2v5a1,1,0,0,0,1,1h4a1,1,0,0,0,1-1V36h2V46H27ZM22,48h2v4H22Zm-4,0h2v5a1,1,0,0,0,1,1h4a1,1,0,0,0,1-1V48h2V58H18ZM2,62V60H62v2Z"/><rect class="cls-5" x="58" y="50" width="2" height="2"/><path class="cls-5" d="M63,0H1A1,1,0,0,0,0,1V13a4.975,4.975,0,0,0,1.026,3H1V27a3.99,3.99,0,0,0,3.539,3.953l5.508,5.508a3.958,3.958,0,0,0,5.974,2.974l3.272,3.272,1.414-1.414-3.272-3.272a3.958,3.958,0,0,0-2.974-5.974L9,26.586V16H8.975A4.971,4.971,0,0,0,10,13V10.215A3.067,3.067,0,0,0,12,11a3.589,3.589,0,0,0,3-2,3.589,3.589,0,0,0,3,2,3.589,3.589,0,0,0,3-2,3.589,3.589,0,0,0,3,2,3.589,3.589,0,0,0,3-2,3.589,3.589,0,0,0,3,2c2.015,0,3.633-2.129,3.942-5H63a1,1,0,0,0,1-1V1A1,1,0,0,0,63,0ZM10.506,34.092l-3.6-3.6a4.006,4.006,0,0,0,1.586-1.586l3.6,3.6A4.006,4.006,0,0,0,10.506,34.092ZM7,23.556a3.875,3.875,0,0,0-4,0V17.573a4.9,4.9,0,0,0,4,0ZM2.882,15.128A3.018,3.018,0,0,1,2,13V6H8v7a3.022,3.022,0,0,1-.877,2.123A3.087,3.087,0,0,1,2.882,15.128ZM3,27a2,2,0,1,1,2,2A2,2,0,0,1,3,27Zm13,9a2,2,0,1,1-2-2A1.986,1.986,0,0,1,16,36ZM12,9c-.8,0-1.673-1.233-1.923-3h3.846C13.673,7.767,12.8,9,12,9Zm6,0c-.8,0-1.673-1.233-1.923-3h3.846C19.673,7.767,18.8,9,18,9Zm6,0c-.8,0-1.673-1.233-1.923-3h3.846C25.673,7.767,24.8,9,24,9Zm6,0c-.8,0-1.673-1.233-1.923-3h3.846C31.673,7.767,30.8,9,30,9ZM62,4H2V2H62Z"/><rect class="cls-5" x="4" y="12" width="2" height="2"/></g></svg>