<?xml version="1.0" encoding="utf-8"?>
<!-- Generator: Adobe Illustrator 22.1.0, SVG Export Plug-In . SVG Version: 6.00 Build 0)  -->
<svg version="1.1" id="Layer_1" xmlns="http://www.w3.org/2000/svg" xmlns:xlink="http://www.w3.org/1999/xlink" x="0px" y="0px"
	 viewBox="0 0 256 256" style="enable-background:new 0 0 256 256;" xml:space="preserve">
<style type="text/css">
	.st0{fill:#D73735;}
	.st1{fill:#F85252;}
	.st2{fill:#EDAF85;}
	.st3{fill:#F7C09A;}
	.st4{fill:#D8D6D7;}
	.st5{fill:#FFFFFF;}
	.st6{fill:#1C868E;}
	.st7{fill:#40C4DF;}
	.st8{fill:#491352;}
	.st9{fill:#56C1B3;}
	.st10{fill:#7BEFE4;}
</style>
<g>
	<path class="st6" d="M190.238,163.824c-4.59,10.52-8.12,17.74-8.12,30.17c0,5.94,0.96,11.8,2.82,17.36
		c1.85,5.57,4.6,10.83,8.16,15.58l12.23,16.32c2.48,3.3,0.13,8-4,8h-87.3c-2.76,0-5-2.24-5-5c0-21,0.01-40.25,0.01-40.25
		c0-2.76-2.24-5-5-5h-17.18c-4.61,0-8.9-2.37-11.35-6.27c-2.87-5.65-18.23-23.04-20.12-53.12l-0.18-5.79h-11.69
		c-5.17,0-8.18-5.84-5.17-10.05l15.93-22.27c0.61-0.85,0.93-1.86,0.93-2.91c0-3.78,0-12.99,0-12.99c0-45.12,36.09-82.51,81.21-82.85
		c3.01-0.02,5.99,0.12,8.92,0.42c41.28,4.16,73.51,39.01,73.51,81.4c0,14.49-3.76,27.99-10.35,39.74
		C201.698,138.444,195.798,151.074,190.238,163.824z"/>
	<path class="st7" d="M190.238,163.824c-4.59,10.52-8.12,17.74-8.12,30.17c0,5.94,0.96,11.8,2.82,17.36
		c1.85,5.57,4.6,10.83,8.16,15.58l12.23,16.32c2.48,3.3,0.13,8-4,8l-70.8,0c-2.761,0-5-2.24-5-5.002
		c0-20.999,0.01-40.248,0.01-40.248c0-2.76-2.24-5-5-5h-17.18c-4.61,0-8.9-2.37-11.35-6.27c-2.87-5.65-18.23-23.04-20.12-53.12
		l-0.002-0.071c-0.099-3.187-2.711-5.72-5.9-5.72H60.75c-5.17,0-8.18-5.84-5.17-10.05l15.198-22.27c0.61-0.85,0.93-1.86,0.93-2.91
		c0-3.78,0-12.99,0-12.99c0-42.56,32.11-78.25,73.63-82.43c41.28,4.16,73.51,39.01,73.51,81.4c0,14.49-3.76,27.99-10.35,39.74
		C201.698,138.444,195.798,151.074,190.238,163.824z"/>
	<path id="XMLID_1968_" class="st5" d="M106.103,38.587h68.789c4.317,0,7.817,3.5,7.817,7.817v68.789c0,4.317-3.5,7.817-7.817,7.817
		h-68.789c-4.317,0-7.817-3.5-7.817-7.817V46.404C98.286,42.087,101.786,38.587,106.103,38.587z"/>
	
		<rect x="110.287" y="50.586" transform="matrix(-1.836970e-16 1 -1 -1.836970e-16 221.2959 -59.7001)" class="st1" width="60.423" height="60.423"/>
	<g>
		<path class="st8" d="M124.499,98.093l2.455-6.795h16.495l2.455,6.795c1.105,3.058,5.703,1.367,4.605-1.664l-11.847-32.711
			c-0.351-0.968-1.27-1.613-2.3-1.613c-2.043,0-3.866-0.318-4.567,1.61L119.9,96.426C118.79,99.479,123.404,101.124,124.499,98.093z
			 M135.202,68.183l6.837,19.1h-13.674L135.202,68.183z"/>
		<path class="st8" d="M161.245,97.262V64.335c0-1.351-1.095-2.446-2.446-2.446h-0.046c-1.351,0-2.446,1.095-2.446,2.446v32.928
			C156.308,100.511,161.245,100.532,161.245,97.262z"/>
		<path class="st8" d="M210.247,127.291c17.64-31.461,13.506-72.732-14.175-100.21C143.324-25.281,53.21,12.362,53.21,87.606
			c0.002,14.167,0.19,13.689-0.559,14.735l-15.931,22.273c-3.949,5.521,0.003,13.21,6.793,13.21h9.759
			c0.892,28.648,12,44.471,20.538,57.978c2.839,4.51,7.715,7.202,13.044,7.202h17.178c1.655,0,3.001,1.338,3,3.001h0.038
			c-0.061,0.541-0.041,39.703-0.041,40.247c0,3.861,3.14,7.002,7,7.002h87.303c5.766,0,9.059-6.589,5.6-11.2
			c-12.466-16.621-22.818-27.237-22.818-48.059c0-11.227,2.978-18.016,7.098-27.412
			C196.597,154.277,202.483,141.136,210.247,127.291z M180.115,193.996c0,22.073,10.842,33.425,23.618,50.459
			c1.488,1.983,0.075,4.8-2.4,4.8H114.03c-1.654,0-3-1.347-3-3.002c0-20.95,0.003-40.162,0.003-40.245
			c0.001-3.87-3.128-7.003-7-7.003H86.855c-3.918,0-7.505-1.965-9.614-5.262c-4.565-8.825-18.942-22.822-20.03-57.979
			c-0.033-1.08-0.918-1.938-1.999-1.938H43.514c-3.55,0-5.602-4.001-3.54-6.884c17.298-24.184,17.238-23.35,17.238-26.342
			c-0.002-11.762,0.029-12.235-0.05-12.993h0.048c0-71.586,85.739-107.618,136.043-57.687
			c26.233,26.041,30.397,65.287,13.504,95.414c-5.961,10.632-11.622,22.255-18.353,37.689
			C183.744,173.67,180.115,181.264,180.115,193.996z"/>
		<path class="st8" d="M170.709,48.283h-60.423c-1.272,0-2.304,1.031-2.304,2.304v60.423c0,1.272,1.031,2.304,2.304,2.304h60.423
			c1.272,0,2.304-1.031,2.304-2.304V50.586C173.013,49.314,171.982,48.283,170.709,48.283z M168.406,108.706H112.59V52.89h55.815
			V108.706z"/>
		<path class="st8" d="M200.038,62.387c3.044,0,3.048-4.607,0-4.607h-15.024V46.404c0-5.581-4.54-10.121-10.121-10.121h-11.376
			V21.258c0-3.043-4.607-3.048-4.607,0v15.024h-16.107V21.258c0-3.043-4.607-3.048-4.607,0v15.024h-16.107V21.258
			c0-3.043-4.607-3.048-4.607,0v15.024h-11.376c-5.581,0-10.121,4.54-10.121,10.121V57.78H80.958c-3.044,0-3.048,4.607,0,4.607
			h15.024v16.107H80.958c-3.044,0-3.048,4.607,0,4.607h15.024V99.21H80.958c-3.044,0-3.048,4.607,0,4.607h15.024v11.376
			c0,5.58,4.54,10.12,10.121,10.12h11.376v15.024c0,3.043,4.607,3.048,4.607,0v-15.024h16.107v15.024c0,3.043,4.607,3.048,4.607,0
			v-15.024h16.107v15.024c0,3.043,4.607,3.048,4.607,0v-15.024h11.376c5.581,0,10.121-4.54,10.121-10.12v-11.376h15.024
			c3.044,0,3.048-4.607,0-4.607h-15.024V83.102h15.024c3.044,0,3.048-4.607,0-4.607h-15.024V62.387H200.038z M180.406,115.193
			c0,3.04-2.473,5.513-5.513,5.513h-68.789c-3.04,0-5.513-2.473-5.513-5.513V46.404c0-3.04,2.473-5.514,5.513-5.514h68.789
			c3.04,0,5.513,2.474,5.513,5.514V115.193z"/>
	</g>
</g>
</svg>
