<?xml version="1.0" encoding="utf-8"?>
<!-- Generator: Adobe Illustrator 24.0.0, SVG Export Plug-In . SVG Version: 6.00 Build 0)  -->
<svg version="1.1" xmlns="http://www.w3.org/2000/svg" xmlns:xlink="http://www.w3.org/1999/xlink" x="0px" y="0px"
	 viewBox="0 0 256 256" enable-background="new 0 0 256 256" xml:space="preserve">
<g id="Layer_2" display="none">
	<rect x="-1436" y="-3144" display="inline" fill="#FFFFFF" width="1786" height="5896"/>
</g>
<g id="Layer_1">
	<g>
		<path fill="#FC5D3D" d="M152.324,149.627c-1.191,1.191-2.467,2.281-3.794,3.236c-2.915,2.154-6.125,3.743-9.446,4.765
			c-12.436,3.667-24.425,0.11-32.544-8.009c-8.069-8.069-11.693-20.04-8.009-32.544c1.022-3.32,2.611-6.531,4.765-9.446
			c4.805-6.675,12.468-11.628,21.434-12.935c21.434-3.151,39.886,15.284,36.735,36.735
			C160.494,138.094,157.452,144.498,152.324,149.627z"/>
		<path fill="#FFCBC3" d="M127.159,154.498c-1.376-0.109-2.403-1.313-2.294-2.69s1.315-2.401,2.69-2.294
			c6.639,0.528,13.216-1.767,18.05-6.604c8.111-8.111,9.346-21.625,1.155-31.109c-0.903-1.045-0.787-2.624,0.258-3.526
			c1.043-0.902,2.624-0.787,3.525,0.258c9.754,11.29,8.713,27.796-1.402,37.912C143.147,152.442,135.095,155.127,127.159,154.498z
			 M116.657,151.511c-2.547-1.313-4.88-3.02-6.934-5.075c-0.977-0.976-0.977-2.559,0-3.535c0.977-0.977,2.559-0.977,3.535,0
			c1.688,1.688,3.603,3.09,5.689,4.166c1.228,0.633,1.709,2.141,1.076,3.368C119.39,151.666,117.879,152.141,116.657,151.511z"/>
		<path fill="#EEC11E" d="M210.052,34.657c-3.649,3.649-9.245,4.603-14.02,2.27c-18.88-9.24-42.32-6.02-58.02,9.68
			c-11.51,11.51-16.31,27.19-14.4,42.18c0.25,1.99,0.62,3.96,1.11,5.91c-8.457,1.234-16.171,5.773-21.43,12.93
			c-9.518-26.672-3.406-57.235,17.56-78.19c23.22-23.23,57.91-28.01,85.84-14.33C214.223,18.786,215.982,28.727,210.052,34.657z"/>
		<path fill="#E8A61E" d="M103.292,107.627c-0.81-2.27-1.51-4.57-2.09-6.89c5.352-5.963,13.333-10.563,22.41-11.95
			c0.25,1.99,0.62,3.96,1.11,5.91C116.266,95.93,108.552,100.469,103.292,107.627z"/>
		<path fill="#EEC11E" d="M226.723,135.306c-19.32,19.33-46.59,25.88-71.29,19.65c-2.33-0.58-4.63-1.28-6.9-2.09
			c1.32-0.97,2.6-2.05,3.79-3.25c5.12-5.12,8.17-11.53,9.14-18.18c1.95,0.49,3.92,0.86,5.91,1.11c14.99,1.91,30.67-2.89,42.18-14.4
			c15.7-15.7,18.92-39.14,9.68-58.02c-2.3-4.69-1.43-10.32,2.27-14.02c2.41-2.41,5.48-3.55,8.52-3.55c4.45,0,8.84,2.44,11.03,6.91
			C254.732,77.397,249.953,112.087,226.723,135.306z"/>
		<path fill="#E8A61E" d="M167.373,132.546c-1.272,8.328-5.123,15.95-11.94,22.41c-2.33-0.58-4.63-1.28-6.9-2.09
			c1.32-0.97,2.6-2.05,3.79-3.25c5.12-5.12,8.17-11.53,9.14-18.18C163.413,131.926,165.383,132.296,167.373,132.546z"/>
		<path fill="#F8E5B0" d="M163.738,150.634c-1.366-0.198-2.313-1.466-2.116-2.833c0.198-1.366,1.466-2.317,2.833-2.116
			c3.615,0.523,7.318,0.738,10.979,0.634c1.351-0.016,2.531,1.049,2.569,2.429c0.039,1.38-1.049,2.53-2.429,2.569
			C171.598,151.429,167.629,151.198,163.738,150.634z M182.979,148.236c-0.243-1.359,0.662-2.658,2.021-2.901
			c13.018-2.328,24.789-8.45,34.044-17.705c12.101-12.101,18.765-28.19,18.765-45.303c0-9.673-2.251-19.385-6.51-28.086
			c-0.607-1.24-0.094-2.738,1.146-3.345c1.24-0.605,2.737-0.094,3.344,1.146c4.593,9.381,7.02,19.854,7.02,30.285
			c0,18.449-7.185,35.793-20.229,48.838c-9.98,9.981-22.671,16.583-36.698,19.092C184.527,150.5,183.223,149.601,182.979,148.236z"
			/>
		<circle fill="#EFEFEF" cx="129.432" cy="126.727" r="12.141"/>
		<circle fill="#7D7B79" cx="129.432" cy="126.727" r="12.141"/>
		<path fill="#F0C020" d="M63.145,119.812c-3.489-1.153-7.093-2.161-9.116-10.876c-1.863,8.027-4.849,9.466-9.116,10.876
			c6.96,2.3,8.009,6.108,9.116,10.876C55.937,122.468,59.091,121.151,63.145,119.812z"/>
		<path fill="#F0C020" d="M191.286,90.281c-3.489-1.153-7.093-2.161-9.116-10.876c-1.863,8.027-4.849,9.466-9.116,10.876
			c6.96,2.3,8.01,6.108,9.116,10.876C184.077,92.937,187.231,91.621,191.286,90.281z"/>
		<path fill="#F0C020" d="M169.251,182.869c-3.489-1.153-7.093-2.161-9.116-10.876c-1.863,8.027-4.849,9.466-9.116,10.876
			c6.96,2.3,8.009,6.108,9.116,10.876C162.042,185.526,165.197,184.209,169.251,182.869z"/>
		<path fill="#7D7B79" d="M139.085,157.628L48.042,248.67L7.489,208.117l91.043-91.043c-3.684,12.504-0.059,24.476,8.009,32.544
			C114.66,157.737,126.649,161.294,139.085,157.628z"/>
		
			<rect x="33.996" y="177.033" transform="matrix(0.7071 0.7071 -0.7071 0.7071 155.1725 12.3559)" fill="#AFAFAF" width="57.351" height="32.91"/>
		<path fill="#AFAFAF" d="M139.083,157.627l-21.23,21.23l-40.55-40.55l13.85-13.85l7.38-7.38c-3.68,12.5-0.06,24.47,8.01,32.54
			C114.663,157.736,126.653,161.296,139.083,157.627z"/>
		<path fill="#7D7B79" d="M139.083,157.627l-7.39,7.39c-10.47,0.63-21.23-2.99-29.39-11.16c-8.21-8.2-11.79-18.95-11.15-29.4
			l7.38-7.38c-3.68,12.5-0.06,24.47,8.01,32.54C114.663,157.736,126.653,161.296,139.083,157.627z"/>
		<path fill="#EFEFEF" d="M46.838,234.949l-14.433-14.432c-0.977-0.976-0.977-2.559,0-3.535c0.977-0.977,2.559-0.977,3.535,0
			l12.665,12.664l65.117-65.117c0.977-0.977,2.559-0.977,3.535,0c0.977,0.976,0.977,2.559,0,3.535l-66.885,66.885
			C49.397,235.925,47.815,235.925,46.838,234.949z M25.334,213.446l-3.279-3.28c-0.977-0.977-0.977-2.559,0-3.536
			c0.977-0.976,2.559-0.976,3.535,0l3.279,3.28c0.977,0.977,0.977,2.559,0,3.536C27.892,214.422,26.311,214.422,25.334,213.446z"/>
		<g>
			<path d="M44.133,122.177c5.81,1.921,6.471,4.766,7.47,9.073c0.597,2.569,4.257,2.569,4.854,0c1.659-7.153,3.971-7.917,7.47-9.073
				c2.271-0.75,2.276-3.98,0-4.731c-3.271-1.072-5.779-1.789-7.471-9.073c-0.595-2.564-4.26-2.557-4.853,0
				c-1.661,7.154-3.972,7.917-7.47,9.073C41.862,118.196,41.857,121.425,44.133,122.177z M54.038,116.086
				c0.989,1.715,2.098,2.892,3.245,3.746c-1.191,0.868-2.268,2.011-3.21,3.614c-0.797-1.285-1.876-2.501-3.401-3.581
				C51.927,118.972,53.056,117.784,54.038,116.086z"/>
			<path d="M184.597,78.842c-0.595-2.564-4.26-2.557-4.853,0c-1.661,7.154-3.972,7.917-7.47,9.073c-2.271,0.75-2.276,3.979,0,4.731
				c5.811,1.921,6.471,4.766,7.47,9.073c0.597,2.569,4.258,2.569,4.854,0c1.659-7.153,3.971-7.917,7.47-9.073
				c2.271-0.75,2.276-3.98,0-4.732C188.796,86.843,186.288,86.126,184.597,78.842z M182.214,93.916
				c-0.797-1.285-1.876-2.501-3.401-3.581c1.254-0.894,2.384-2.081,3.366-3.78c0.989,1.715,2.098,2.892,3.245,3.746
				C184.233,91.17,183.156,92.312,182.214,93.916z"/>
			<path d="M170.032,180.503c-3.271-1.072-5.779-1.789-7.471-9.073c-0.594-2.564-4.26-2.557-4.853,0
				c-1.661,7.154-3.972,7.917-7.47,9.073c-2.271,0.75-2.276,3.979,0,4.731c5.81,1.921,6.471,4.766,7.47,9.073
				c0.597,2.569,4.258,2.569,4.854,0c1.659-7.153,3.971-7.917,7.47-9.073C172.303,184.485,172.308,181.255,170.032,180.503z
				 M160.179,186.504c-0.797-1.285-1.876-2.501-3.401-3.581c1.254-0.894,2.384-2.081,3.366-3.78
				c0.989,1.715,2.098,2.892,3.245,3.746C162.198,183.758,161.122,184.901,160.179,186.504z"/>
			<path d="M119.082,116.376c-5.73,5.71-5.731,14.989,0,20.7c5.684,5.706,14.987,5.735,20.7,0c0,0,0.01,0,0.01-0.01
				c5.707-5.728,5.721-14.958-0.01-20.69C134.127,110.7,124.828,110.609,119.082,116.376z M136.252,133.546
				c-3.761,3.76-9.874,3.767-13.64,0c-3.762-3.761-3.766-9.875,0-13.64c3.789-3.77,9.865-3.753,13.64,0
				C139.967,123.64,140.06,129.697,136.252,133.546z"/>
			<path d="M146.012,98.806c0.61-1.23,0.11-2.73-1.109-3.35c0,0-0.011,0-0.011-0.01c-1.21-0.6-2.76-0.07-3.359,1.13
				c-0.61,1.23-0.101,2.74,1.13,3.35c0,0,0.01,0,0.01,0.01C143.864,100.515,145.386,100.073,146.012,98.806z"/>
			<path d="M65.693,173.246c-0.968,0.967-0.98,2.551,0,3.53c1.036,1.015,2.606,0.933,3.54,0c0.962-0.963,0.982-2.547,0-3.53
				C68.292,172.296,66.642,172.296,65.693,173.246z"/>
			<path d="M248.642,85.236c-1.39-0.09-2.569,0.95-2.67,2.32c-1.239,17.33-8.699,33.67-21.02,45.98
				c-19.031,19.045-46.331,25.538-71.36,18.34c5.342-5.319,8.474-11.283,9.855-17.429c1.188,0.23,2.407,0.43,3.616,0.579
				c15.934,2.017,32.298-3.172,44.26-15.11c9.853-9.873,15.55-23.218,15.55-37.55c0-8.06-1.87-16.13-5.4-23.34
				c-1.797-3.676-1.201-8.15,1.801-11.15c1.84-1.84,4.17-2.81,6.75-2.82c3.76,0.01,7.119,2.12,8.79,5.51
				c2.75,5.62,4.76,11.59,5.97,17.74c0.26,1.33,1.6,2.24,2.939,1.97c1.351-0.26,2.23-1.58,1.971-2.93
				c-1.311-6.59-3.46-12.98-6.391-18.98c-2.594-5.292-7.845-8.31-13.26-8.31h-0.04c-3.87,0-7.51,1.52-10.27,4.28
				c-4.554,4.555-5.457,11.34-2.75,16.89c3.199,6.53,4.89,13.84,4.89,21.14c-0.01,12.85-5.01,24.93-14.09,34.01
				c-10.793,10.793-25.661,15.546-40.101,13.69c-1.167-0.149-2.332-0.356-3.492-0.593c0.85-10.646-3.128-20.673-10.537-27.838
				c-0.971-0.92-2.61-0.9-3.54,0.06c-0.976,1.039-0.911,2.609,0.06,3.54c12.423,12,11.844,31.145,0.38,42.61
				c-5.428,5.483-12.908,8.72-21.27,8.72c-7.9,0-15.351-3.1-20.97-8.71c-7.632-7.631-10.737-18.754-7.381-30.07
				c0-0.01,0-0.01,0-0.01c4.306-13.884,18.321-22.805,32.98-20.61c1.34,0.2,2.64-0.76,2.84-2.1c0.21-1.36-0.74-2.64-2.1-2.85
				c-2.636-0.388-5.302-0.466-7.97-0.253c-3.226-15.847,1.59-32.089,13.1-43.587c15.184-15.184,37.516-17.843,55.149-9.2
				c5.646,2.739,12.382,1.749,16.881-2.75h0.01c7.125-7.152,5.063-19.113-4.03-23.57c-28.706-14.052-64.585-9.316-88.71,14.81
				c-20.608,20.61-28.115,51.229-18.549,79.589c-1.775,2.611-3.176,5.436-4.167,8.446L5.722,206.346
				c-0.974,0.975-0.974,2.565,0,3.54c0.97,0.969,2.553,0.978,3.53,0l21.505-21.505L67.776,225.4l-21.504,21.506
				c-0.982,0.981-0.966,2.566,0,3.53c0.931,0.932,2.502,1.016,3.54,0c4.806-4.806,85.832-85.831,90.645-90.645
				c3.013-0.991,5.839-2.395,8.453-4.171c27.24,9.262,58.258,2.781,79.581-18.544c13.005-13.004,21.129-30.278,22.46-49.17
				C251.052,86.536,250.012,85.336,248.642,85.236z M122.622,31.206c22.677-22.693,56.254-26.937,82.97-13.85
				c5.94,2.891,7.453,10.768,2.69,15.53c-3.011,3.01-7.488,3.595-11.15,1.79c-20.149-9.837-44.659-6.072-60.89,10.16
				c-12.561,12.56-17.981,30.486-14.531,47.875c-7.118,1.598-12.573,4.999-17.429,9.855
				C96.962,77.148,103.868,49.947,122.622,31.206z M94.58,198.594l-18.278-18.277c-0.939-0.95-2.59-0.95-3.54,0
				c-0.97,0.97-0.97,2.56,0,3.53l18.283,18.283l-19.734,19.736l-37.019-37.019l19.735-19.735l4.595,4.595
				c0.931,0.932,2.502,1.016,3.54,0c0.956-0.956,0.99-2.527,0-3.54l-4.599-4.591l19.734-19.734l37.016,37.017L94.58,198.594z
				 M117.854,175.318l-37.016-37.017l13.834-13.834c-0.703,10.426,3.158,19.987,10.102,26.919
				c7.035,7.046,16.623,10.785,26.92,10.091L117.854,175.318z"/>
			<path d="M246.012,77.896c0.074,1.209,1.029,2.34,2.65,2.34c1.38-0.09,2.43-1.28,2.34-2.65c-0.08-1.37-1.27-2.44-2.649-2.34
				C246.939,75.332,245.931,76.547,246.012,77.896z"/>
		</g>
	</g>
</g>
</svg>
