<?xml version="1.0" encoding="iso-8859-1"?>
<!-- Generator: Adobe Illustrator 22.0.1, SVG Export Plug-In . SVG Version: 6.00 Build 0)  -->
<svg version="1.1" id="Layer_1" xmlns="http://www.w3.org/2000/svg" xmlns:xlink="http://www.w3.org/1999/xlink" x="0px" y="0px"
	 viewBox="0 0 64 64" style="enable-background:new 0 0 64 64;" xml:space="preserve">
<style type="text/css">
	.st0{fill:#BDBDBD;}
	.st1{fill:#63312D;}
	.st2{fill:#FAF5F5;}
	.st3{fill:#E3DFDF;}
	.st4{fill:#E0E0E0;}
	.st5{fill:#84DBFF;}
	.st6{fill:#A9EBFF;}
	.st7{fill:#52BADB;}
</style>
<g>
	<path class="st0" d="M49.426,25.267h-5.04c5.249,0,9.543,4.294,9.543,9.543v0.559c0,5.249-4.294,9.543-9.543,9.543h5.04
		c5.403,0,9.823-4.42,9.823-9.823v0C59.248,29.688,54.828,25.267,49.426,25.267z"/>
	<path class="st1" d="M49.426,45.413h-5.04c-0.276,0-0.5-0.224-0.5-0.5s0.224-0.5,0.5-0.5c4.986,0,9.043-4.057,9.043-9.043v-0.56
		c0-4.986-4.057-9.043-9.043-9.043c-0.276,0-0.5-0.224-0.5-0.5s0.224-0.5,0.5-0.5h5.04c5.692,0,10.323,4.631,10.323,10.323
		C59.749,40.782,55.118,45.413,49.426,45.413z M48.753,44.413h0.673c5.141,0,9.323-4.182,9.323-9.322s-4.183-9.323-9.323-9.323
		h-0.673c3.355,1.627,5.676,5.069,5.676,9.043v0.56C54.428,39.344,52.108,42.786,48.753,44.413z"/>
	<path class="st2" d="M15.948,7.338c-4.993,0-9.045,3.995-9.154,8.962H6.098c-2.586,0-4.683,2.097-4.683,4.683
		c0,2.586,2.097,4.683,4.683,4.683h9.85c5.061,0,9.164-4.103,9.164-9.164S21.009,7.338,15.948,7.338z"/>
	<path class="st1" d="M15.948,26.166h-9.85c-2.858,0-5.183-2.325-5.183-5.183s2.325-5.183,5.183-5.183h0.219
		c0.364-4.985,4.585-8.962,9.63-8.962c5.329,0,9.664,4.335,9.664,9.664S21.276,26.166,15.948,26.166z M6.098,16.801
		c-2.306,0-4.183,1.876-4.183,4.183s1.876,4.183,4.183,4.183h9.85c4.777,0,8.664-3.886,8.664-8.664s-3.887-8.664-8.664-8.664
		c-4.67,0-8.552,3.801-8.654,8.473c-0.006,0.272-0.228,0.489-0.5,0.489H6.098z"/>
	<path class="st3" d="M21.168,7.338h-5.22c5.061,0,9.164,4.103,9.164,9.164c0,4.88-3.817,8.857-8.627,9.137l0.001,0.027h4.682
		c5.061,0,9.164-4.103,9.164-9.164C30.332,11.441,26.229,7.338,21.168,7.338z"/>
	<path class="st1" d="M21.168,26.166h-4.682c-0.269,0-0.49-0.213-0.5-0.482c-0.01-0.271,0.198-0.528,0.47-0.544
		c4.573-0.266,8.156-4.06,8.156-8.638c0-4.777-3.887-8.664-8.664-8.664c-0.276,0-0.5-0.224-0.5-0.5s0.224-0.5,0.5-0.5h5.22
		c5.329,0,9.664,4.335,9.664,9.664S26.496,26.166,21.168,26.166z M20.211,25.166h0.957c4.777,0,8.664-3.886,8.664-8.664
		s-3.887-8.664-8.664-8.664h-0.941c3.188,1.581,5.385,4.871,5.385,8.664C25.612,20.284,23.42,23.586,20.211,25.166z"/>
	<path class="st1" d="M44.385,45.413H20.539c-5.538,0-10.043-4.505-10.043-10.043v-0.559c0-5.538,4.505-10.044,10.043-10.044h23.846
		c5.538,0,10.043,4.506,10.043,10.044v0.559C54.428,40.908,49.924,45.413,44.385,45.413z M20.539,25.767
		c-4.986,0-9.043,4.057-9.043,9.044v0.559c0,4.986,4.057,9.043,9.043,9.043h23.846c4.986,0,9.043-4.057,9.043-9.043v-0.559
		c0-4.987-4.057-9.044-9.043-9.044H20.539z"/>
	<path class="st4" d="M44.385,25.268H20.539c-5.249,0-9.543,4.294-9.543,9.543v0.559c0,5.249,4.294,9.543,9.543,9.543h23.846
		c5.249,0,9.543-4.294,9.543-9.543v-0.559C53.929,29.562,49.634,25.268,44.385,25.268z"/>
	<path class="st2" d="M13.013,35.37v-0.559c0-5.249,4.294-9.543,9.543-9.543h-2.017c-5.249,0-9.543,4.294-9.543,9.543v0.559
		c0,5.249,4.294,9.543,9.543,9.543h2.017C17.308,44.913,13.013,40.619,13.013,35.37z"/>
	<path class="st1" d="M44.385,45.413H20.539c-5.538,0-10.043-4.505-10.043-10.043v-0.559c0-5.538,4.505-10.044,10.043-10.044h23.846
		c5.538,0,10.043,4.506,10.043,10.044v0.559C54.428,40.908,49.924,45.413,44.385,45.413z M20.539,25.767
		c-4.986,0-9.043,4.057-9.043,9.044v0.559c0,4.986,4.057,9.043,9.043,9.043h23.846c4.986,0,9.043-4.057,9.043-9.043v-0.559
		c0-4.987-4.057-9.044-9.043-9.044H20.539z"/>
	<path class="st5" d="M22.498,39.441c-2.186,0-3.958-1.772-3.958-3.958l1.253,16.721h5.41l1.253-16.721
		C26.457,37.668,24.685,39.441,22.498,39.441z"/>
	<g>
		<g>
			<path class="st6" d="M18.54,35.482l1.253,16.721h1.66l-1.001-13.348C19.311,38.161,18.54,36.917,18.54,35.482z"/>
		</g>
	</g>
	<path class="st2" d="M18.908,52.203h6.294v4.458h-9.294v-1.458C15.908,53.546,17.251,52.203,18.908,52.203z"/>
	<circle class="st2" cx="22.499" cy="35.482" r="3.958"/>
	<path class="st1" d="M22.498,39.94c-2.458,0-4.458-2-4.458-4.458s2-4.458,4.458-4.458c2.458,0,4.458,2,4.458,4.458
		S24.957,39.94,22.498,39.94z M22.498,32.024c-1.907,0-3.458,1.551-3.458,3.458s1.551,3.458,3.458,3.458
		c1.907,0,3.458-1.551,3.458-3.458S24.406,32.024,22.498,32.024z"/>
	<path class="st1" d="M25.203,52.703h-5.41c-0.262,0-0.479-0.202-0.499-0.463l-1.208-16.107c-0.031-0.212-0.047-0.43-0.047-0.65
		c0-0.269,0.212-0.489,0.481-0.5c0.268,0.014,0.498,0.195,0.517,0.463l0.043,0.574c0.259,1.652,1.692,2.921,3.417,2.921
		s3.158-1.269,3.417-2.921l0.043-0.574c0.02-0.269,0.237-0.468,0.517-0.463c0.269,0.011,0.481,0.231,0.481,0.5
		c0,0.221-0.016,0.438-0.047,0.65L25.702,52.24C25.682,52.501,25.465,52.703,25.203,52.703z M20.258,51.703h4.482l0.985-13.147
		c-0.813,0.853-1.958,1.385-3.227,1.385c-1.268,0-2.414-0.532-3.226-1.385L20.258,51.703z"/>
	<path class="st1" d="M25.202,57.162h-9.294c-0.276,0-0.5-0.224-0.5-0.5v-1.459c0-1.93,1.57-3.5,3.5-3.5h6.294
		c0.276,0,0.5,0.224,0.5,0.5v4.459C25.702,56.938,25.479,57.162,25.202,57.162z M16.408,56.162h8.294v-3.459h-5.794
		c-1.378,0-2.5,1.121-2.5,2.5V56.162z"/>
	<path class="st0" d="M20.091,29.252h-0.653c-2.109,0-3.818-1.709-3.818-3.818v-6.683c0-2.109,1.709-3.818,3.818-3.818h0.653
		c2.109,0,3.818,1.709,3.818,3.818v6.683C23.908,27.543,22.199,29.252,20.091,29.252z"/>
	<path class="st4" d="M17.019,26.497v-7.5c0-1.657,1.343-3,3-3h1.471c0.539,0,1.05,0.114,1.515,0.316
		c-0.7-0.836-1.739-1.378-2.914-1.378h-0.653c-2.109,0-3.818,1.709-3.818,3.818v6.683c0,1.57,0.949,2.916,2.303,3.502
		C17.367,28.274,17.019,27.43,17.019,26.497z"/>
	<path class="st1" d="M20.091,29.752h-0.653c-2.381,0-4.318-1.937-4.318-4.318v-6.683c0-2.381,1.937-4.318,4.318-4.318h0.653
		c2.381,0,4.318,1.937,4.318,4.318v6.683C24.408,27.815,22.471,29.752,20.091,29.752z M19.437,15.434
		c-1.83,0-3.318,1.488-3.318,3.318v6.683c0,1.83,1.488,3.318,3.318,3.318h0.653c1.83,0,3.318-1.488,3.318-3.318v-6.683
		c0-1.83-1.488-3.318-3.318-3.318H19.437z"/>
	<g>
		<path class="st2" d="M22.677,14.934h-2.587c2.109,0,3.818,1.709,3.818,3.818v6.683c0,2.109-1.709,3.818-3.818,3.818h2.587
			c2.109,0,3.818-1.709,3.818-3.818v-6.683C26.495,16.643,24.786,14.934,22.677,14.934z"/>
		<path class="st2" d="M19.301,29.252h0.136c-0.047,0-0.09-0.012-0.136-0.014L19.301,29.252z"/>
	</g>
	<g>
		<path class="st1" d="M22.677,29.752h-2.586c-0.276,0-0.5-0.224-0.5-0.5s0.224-0.5,0.5-0.5c1.83,0,3.318-1.488,3.318-3.318v-6.683
			c0-1.83-1.488-3.318-3.318-3.318c-0.276,0-0.5-0.224-0.5-0.5s0.224-0.5,0.5-0.5h2.586c2.381,0,4.318,1.937,4.318,4.318v6.683
			C26.995,27.815,25.058,29.752,22.677,29.752z M22.857,15.439c0.948,0.792,1.552,1.983,1.552,3.313v6.683
			c0,1.33-0.604,2.521-1.552,3.313c1.746-0.094,3.138-1.544,3.138-3.313v-6.683C25.995,16.983,24.603,15.532,22.857,15.439z"/>
		<path class="st1" d="M19.437,29.752h-0.136c-0.269,0-0.49-0.213-0.5-0.482l0-0.014c-0.005-0.14,0.048-0.274,0.147-0.373
			s0.239-0.157,0.374-0.145c0.017,0,0.095,0.009,0.111,0.011c0.085,0,0.165,0.021,0.235,0.059c0.16,0.083,0.269,0.25,0.269,0.443
			c0,0.275-0.223,0.499-0.499,0.5C19.438,29.752,19.438,29.752,19.437,29.752z"/>
	</g>
	<path class="st5" d="M7.842,12.255C7.206,13.47,6.826,14.841,6.794,16.3h6.469v-4.071h-5.22L7.842,12.255z"/>
	<path class="st6" d="M9.751,12.229H8.043l-0.201,0.026C7.206,13.47,6.826,14.841,6.794,16.3h1.708
		c0.032-1.459,0.412-2.83,1.048-4.045L9.751,12.229z"/>
	<path class="st1" d="M13.263,16.801h-6.47c-0.135,0-0.263-0.054-0.357-0.15s-0.146-0.226-0.143-0.361
		c0.033-1.493,0.405-2.929,1.105-4.266c0.076-0.145,0.217-0.243,0.379-0.264l0.201-0.026l5.284-0.004c0.276,0,0.5,0.224,0.5,0.5
		v4.071C13.763,16.577,13.54,16.801,13.263,16.801z M7.32,15.801h5.443v-3.071H8.163C7.689,13.704,7.406,14.734,7.32,15.801z"/>
	<path class="st1" d="M13.263,16.801h-6.47c-0.135,0-0.263-0.054-0.357-0.15s-0.146-0.226-0.143-0.361
		c0.033-1.493,0.405-2.929,1.105-4.266c0.076-0.145,0.217-0.243,0.379-0.264l0.201-0.026l5.284-0.004c0.276,0,0.5,0.224,0.5,0.5
		v4.071C13.763,16.577,13.54,16.801,13.263,16.801z M7.32,15.801h5.443v-3.071H8.163C7.689,13.704,7.406,14.734,7.32,15.801z"/>
	<path class="st3" d="M25.202,31.524h-2.704c2.186,0,3.958,1.772,3.958,3.958c0,2.186-1.772,3.958-3.958,3.958h2.704
		c2.186,0,3.958-1.772,3.958-3.958C29.161,33.296,27.389,31.524,25.202,31.524z"/>
	<path class="st1" d="M25.202,39.94h-2.704c-0.276,0-0.5-0.224-0.5-0.5s0.224-0.5,0.5-0.5c1.907,0,3.458-1.551,3.458-3.458
		s-1.551-3.458-3.458-3.458c-0.276,0-0.5-0.224-0.5-0.5s0.224-0.5,0.5-0.5h2.704c2.458,0,4.458,2,4.458,4.458
		S27.661,39.94,25.202,39.94z M25.311,32.026c1.003,0.817,1.646,2.063,1.646,3.456s-0.642,2.639-1.646,3.456
		c1.857-0.058,3.35-1.586,3.35-3.456S27.168,32.084,25.311,32.026z"/>
	<g>
		<path class="st7" d="M26.17,39.307l-0.967,12.896h2.704l1.253-16.721C29.161,37.333,27.886,38.874,26.17,39.307z"/>
	</g>
	<g>
		<path class="st1" d="M27.907,52.703h-2.704c-0.139,0-0.272-0.058-0.367-0.16c-0.094-0.102-0.142-0.238-0.132-0.377l0.967-12.896
			c0.016-0.215,0.167-0.395,0.376-0.447c1.362-0.345,2.361-1.461,2.572-2.808l0.043-0.57c0.02-0.269,0.24-0.468,0.517-0.463
			c0.269,0.011,0.481,0.231,0.481,0.5c0,0.219-0.016,0.435-0.047,0.646L28.406,52.24C28.386,52.501,28.169,52.703,27.907,52.703z
			 M25.742,51.703h1.701l0.986-13.153c-0.485,0.507-1.093,0.902-1.787,1.139L25.742,51.703z"/>
	</g>
	<rect x="25.203" y="52.203" class="st3" width="2.71" height="4.458"/>
	<path class="st1" d="M27.913,57.162h-2.71c-0.133,0-0.26-0.053-0.354-0.146s-0.146-0.221-0.146-0.354l0.001-4.459
		c0-0.276,0.224-0.5,0.5-0.5h2.709c0.276,0,0.5,0.224,0.5,0.5v4.459C28.413,56.938,28.189,57.162,27.913,57.162z M25.702,56.162
		h1.71v-3.459h-1.709L25.702,56.162z"/>
	<path class="st5" d="M41.751,39.441c-2.186,0-3.958-1.772-3.958-3.958l1.253,16.721h5.41l1.253-16.721
		C45.709,37.668,43.937,39.441,41.751,39.441z"/>
	<g>
		<g>
			<path class="st6" d="M37.792,35.482l1.253,16.721h1.75l-0.997-13.297C38.606,38.225,37.792,36.955,37.792,35.482z"/>
		</g>
	</g>
	<path class="st2" d="M38.16,52.203h6.294v4.458H35.16v-1.458C35.16,53.546,36.503,52.203,38.16,52.203z"/>
	<circle class="st2" cx="41.751" cy="35.482" r="3.958"/>
	<path class="st1" d="M41.751,39.94c-2.458,0-4.458-2-4.458-4.458s2-4.458,4.458-4.458s4.458,2,4.458,4.458
		S44.209,39.94,41.751,39.94z M41.751,32.024c-1.907,0-3.458,1.551-3.458,3.458s1.551,3.458,3.458,3.458s3.458-1.551,3.458-3.458
		S43.658,32.024,41.751,32.024z"/>
	<path class="st1" d="M44.456,52.703h-5.41c-0.262,0-0.479-0.202-0.499-0.463L37.34,36.133c-0.03-0.212-0.047-0.43-0.047-0.65
		c0-0.269,0.213-0.489,0.481-0.5c0.257,0.005,0.496,0.195,0.518,0.463l0.043,0.574c0.259,1.652,1.691,2.921,3.416,2.921
		s3.157-1.269,3.416-2.921l0.043-0.574c0.021-0.268,0.243-0.457,0.518-0.463c0.269,0.011,0.481,0.231,0.481,0.5
		c0,0.221-0.017,0.438-0.047,0.65L44.955,52.24C44.935,52.501,44.718,52.703,44.456,52.703z M39.51,51.703h4.482l0.985-13.147
		c-0.813,0.853-1.959,1.385-3.227,1.385s-2.414-0.532-3.227-1.385L39.51,51.703z"/>
	<path class="st1" d="M44.455,57.162H35.16c-0.276,0-0.5-0.224-0.5-0.5v-1.459c0-1.93,1.57-3.5,3.5-3.5h6.295
		c0.276,0,0.5,0.224,0.5,0.5v4.459C44.955,56.938,44.731,57.162,44.455,57.162z M35.66,56.162h8.295v-3.459H38.16
		c-1.379,0-2.5,1.121-2.5,2.5V56.162z"/>
	<path class="st3" d="M44.455,31.524h-2.704c2.186,0,3.958,1.772,3.958,3.958c0,2.186-1.772,3.958-3.958,3.958h2.704
		c2.186,0,3.958-1.772,3.958-3.958C48.413,33.296,46.641,31.524,44.455,31.524z"/>
	<path class="st1" d="M44.455,39.94h-2.704c-0.276,0-0.5-0.224-0.5-0.5s0.224-0.5,0.5-0.5c1.907,0,3.458-1.551,3.458-3.458
		s-1.551-3.458-3.458-3.458c-0.276,0-0.5-0.224-0.5-0.5s0.224-0.5,0.5-0.5h2.704c2.458,0,4.458,2,4.458,4.458
		S46.913,39.94,44.455,39.94z M44.563,32.026c1.004,0.817,1.646,2.063,1.646,3.456s-0.642,2.639-1.646,3.456
		c1.856-0.058,3.35-1.586,3.35-3.456S46.42,32.084,44.563,32.026z"/>
	<g>
		<path class="st7" d="M45.422,39.307l-0.967,12.896h2.704l1.253-16.721C48.413,37.333,47.138,38.874,45.422,39.307z"/>
	</g>
	<g>
		<path class="st1" d="M47.16,52.703h-2.704c-0.139,0-0.271-0.058-0.366-0.16c-0.095-0.102-0.143-0.238-0.133-0.377l0.967-12.896
			c0.017-0.215,0.168-0.395,0.377-0.447c1.361-0.345,2.36-1.461,2.571-2.808l0.042-0.57c0.021-0.268,0.249-0.457,0.518-0.463
			c0.269,0.011,0.481,0.231,0.481,0.5c0,0.219-0.016,0.435-0.047,0.646L47.659,52.24C47.639,52.501,47.422,52.703,47.16,52.703z
			 M44.995,51.703h1.701l0.985-13.153c-0.485,0.507-1.093,0.902-1.786,1.139L44.995,51.703z"/>
	</g>
	<rect x="44.455" y="52.203" class="st3" width="2.71" height="4.458"/>
	<path class="st1" d="M47.165,57.162h-2.71c-0.133,0-0.26-0.053-0.354-0.146s-0.146-0.221-0.146-0.354l0.001-4.459
		c0-0.276,0.224-0.5,0.5-0.5h2.709c0.276,0,0.5,0.224,0.5,0.5v4.459C47.665,56.938,47.441,57.162,47.165,57.162z M44.955,56.162
		h1.71v-3.459h-1.709L44.955,56.162z"/>
	<circle class="st2" cx="59.928" cy="20.804" r="2.656"/>
	<path class="st1" d="M59.928,23.96c-1.74,0-3.156-1.416-3.156-3.156s1.416-3.156,3.156-3.156s3.156,1.416,3.156,3.156
		S61.669,23.96,59.928,23.96z M59.928,18.648c-1.188,0-2.156,0.967-2.156,2.156s0.968,2.156,2.156,2.156s2.156-0.967,2.156-2.156
		S61.117,18.648,59.928,18.648z"/>
	<path class="st2" d="M57.61,22.076l-3.564,3.524c-0.894,0.884-0.776,2.359,0.247,3.09c1.023,0.73,2.457,0.362,3.002-0.77
		l2.169-4.505C58.66,23.271,57.99,22.767,57.61,22.076z"/>
	<path class="st1" d="M55.469,29.567c-0.521,0-1.033-0.161-1.466-0.47c-0.608-0.435-0.991-1.11-1.051-1.855
		c-0.06-0.744,0.211-1.473,0.742-1.998l3.564-3.524c0.111-0.109,0.264-0.162,0.424-0.139c0.155,0.022,0.29,0.116,0.366,0.254
		c0.317,0.578,0.865,0.974,1.503,1.086c0.154,0.027,0.287,0.125,0.358,0.264s0.073,0.304,0.005,0.445l-2.169,4.505
		c-0.324,0.673-0.925,1.166-1.648,1.352C55.889,29.54,55.678,29.567,55.469,29.567z M57.539,22.849l-3.142,3.105
		c-0.32,0.317-0.484,0.757-0.448,1.207s0.268,0.858,0.635,1.121c0.367,0.262,0.829,0.349,1.266,0.236
		c0.437-0.112,0.8-0.41,0.996-0.817l1.912-3.973C58.287,23.54,57.869,23.239,57.539,22.849z"/>
</g>
</svg>
