<svg xmlns="http://www.w3.org/2000/svg" width="128" height="128" viewBox="0 0 128 128">
  <title>ROBOT</title>
  <g>
    <g>
      <path d="M96.38,93.44v9.91H31.62V93.44A18.07,18.07,0,0,1,49.69,75.37H78.31A18.07,18.07,0,0,1,96.38,93.44Z" fill="#8299fd"/>
      <path d="M84.97,89.36v13.99h-3.5V89.36a1.75,1.75,0,1,1,3.5,0Z" fill="#3536c0"/>
      <path d="M46.53,89.36v13.99h-3.5V89.36a1.75,1.75,0,1,1,3.5,0Z" fill="#3536c0"/>
      <path d="M70.64,97.67v5.68h-3.5V99.42H59.11a1.752,1.752,0,0,1-1.75-1.75V84.17a1.746,1.746,0,0,1,1.75-1.75h3.41V75.37a1.75,1.75,0,0,1,3.5,0v8.8a1.752,1.752,0,0,1-1.75,1.75H60.86v10h8.03A1.746,1.746,0,0,1,70.64,97.67Z" fill="#3536c0"/>
      <rect x="40.5" y="42.017" width="47" height="33.358" rx="4.332" ry="4.332" fill="#d2ddff"/>
      <path d="M71.912,35.854a1.74,1.74,0,0,1-1.237-.512,9.452,9.452,0,0,0-13.35,0,1.75,1.75,0,0,1-2.475-2.475,12.954,12.954,0,0,1,18.3,0,1.75,1.75,0,0,1-1.237,2.987Z" fill="#ff7eb7"/>
      <circle cx="64" cy="42.017" r="4.62" fill="#ffa7ce"/>
      <rect x="34.625" y="50.633" width="5.875" height="16.125" fill="#8299fd"/>
      <rect x="87.5" y="50.633" width="5.875" height="16.125" fill="#8299fd"/>
      <g>
        <circle cx="54.105" cy="55.598" r="3.098" fill="#8299fd"/>
        <circle cx="73.895" cy="55.598" r="3.098" fill="#8299fd"/>
      </g>
      <path d="M67.167,68.508H60.833a1.75,1.75,0,0,1,0-3.5h6.334a1.75,1.75,0,0,1,0,3.5Z" fill="#8299fd"/>
    </g>
    <g>
      <path d="M53.25,40.267h-.875a1.75,1.75,0,0,0,0,3.5h.875a1.75,1.75,0,0,0,0-3.5Z" fill="#3536c0"/>
      <path d="M72.93,29.2a15.709,15.709,0,0,1,2.112,1.773A1.75,1.75,0,1,0,77.517,28.5a19.259,19.259,0,0,0-2.583-2.167,1.75,1.75,0,1,0-2,2.869Z" fill="#3536c0"/>
      <path d="M51.721,31.487a1.746,1.746,0,0,0,1.237-.512,15.659,15.659,0,0,1,15.206-4.011,1.75,1.75,0,0,0,.93-3.375A19.171,19.171,0,0,0,50.483,28.5a1.75,1.75,0,0,0,1.238,2.987Z" fill="#3536c0"/>
      <path d="M73.149,32.867a12.953,12.953,0,0,0-18.3,0,1.75,1.75,0,1,0,2.474,2.475,9.452,9.452,0,0,1,13.35,0,1.75,1.75,0,1,0,2.474-2.475Z" fill="#3536c0"/>
      <path d="M68.5,37.513a6.369,6.369,0,1,0,1.866,4.5A6.326,6.326,0,0,0,68.5,37.513Zm-2.475,6.533a2.938,2.938,0,0,1-4.058,0,2.87,2.87,0,1,1,4.058,0Z" fill="#3536c0"/>
      <path d="M54.105,60.445A4.848,4.848,0,1,0,49.257,55.6,4.853,4.853,0,0,0,54.105,60.445Zm0-6.195A1.348,1.348,0,1,1,52.757,55.6,1.349,1.349,0,0,1,54.105,54.25Z" fill="#3536c0"/>
      <path d="M73.9,60.445A4.848,4.848,0,1,0,69.047,55.6,4.853,4.853,0,0,0,73.9,60.445Zm0-6.195A1.348,1.348,0,1,1,72.547,55.6,1.349,1.349,0,0,1,73.9,54.25Z" fill="#3536c0"/>
      <path d="M67.167,65.008H60.833a1.75,1.75,0,0,0,0,3.5h6.334a1.75,1.75,0,0,0,0-3.5Z" fill="#3536c0"/>
      <path d="M97.784,89.764a1.75,1.75,0,1,0-3.439.646,16.528,16.528,0,0,1,.28,3.028v9.911a1.75,1.75,0,0,0,3.5,0V93.438A19.853,19.853,0,0,0,97.784,89.764Z" fill="#3536c0"/>
      <path d="M95.228,86.847A1.75,1.75,0,0,0,96,84.494q-.269-.528-.566-1.04a1.751,1.751,0,0,0-3.022,1.768q.246.42.467.856a1.752,1.752,0,0,0,2.353.769Z" fill="#3536c0"/>
      <path d="M91.612,78.752A19.821,19.821,0,0,0,87.1,75.676a6.068,6.068,0,0,0,2.152-4.633V52.383h2.375V66.758a1.75,1.75,0,0,0,3.5,0V50.633a1.749,1.749,0,0,0-1.75-1.75H89.25V46.349a6.089,6.089,0,0,0-6.082-6.082H74.9a1.75,1.75,0,0,0,0,3.5h8.273a2.585,2.585,0,0,1,2.582,2.582V71.043a2.585,2.585,0,0,1-2.582,2.582H44.832a2.585,2.585,0,0,1-2.582-2.582V46.349a2.585,2.585,0,0,1,2.582-2.582h1.606a1.75,1.75,0,0,0,0-3.5H44.832a6.089,6.089,0,0,0-6.082,6.082V65.008H36.375V50.633a1.75,1.75,0,0,0-3.5,0V66.758a1.749,1.749,0,0,0,1.75,1.75H38.75v2.535A6.069,6.069,0,0,0,40.923,75.7,19.816,19.816,0,0,0,29.875,93.438v9.911a1.75,1.75,0,0,0,3.5,0V93.438A16.33,16.33,0,0,1,49.687,77.125H62.523v5.292H59.106a1.75,1.75,0,0,0-1.75,1.75v13.5a1.75,1.75,0,0,0,1.75,1.75h8.038v3.932a1.75,1.75,0,0,0,3.5,0V97.667a1.75,1.75,0,0,0-1.75-1.75H60.856v-10h3.417a1.749,1.749,0,0,0,1.75-1.75V77.125H78.312a16.281,16.281,0,0,1,10.951,4.221,1.75,1.75,0,0,0,2.349-2.594Z" fill="#3536c0"/>
      <path d="M83.221,87.612a1.75,1.75,0,0,0-1.75,1.75v13.987a1.75,1.75,0,0,0,3.5,0V89.362A1.751,1.751,0,0,0,83.221,87.612Z" fill="#3536c0"/>
      <path d="M44.779,87.612a1.75,1.75,0,0,0-1.75,1.75v13.987a1.75,1.75,0,0,0,3.5,0V89.362A1.75,1.75,0,0,0,44.779,87.612Z" fill="#3536c0"/>
    </g>
  </g>
</svg>
