<?xml version="1.0" encoding="iso-8859-1"?>
<!-- Uploaded to: SVG Repo, www.svgrepo.com, Generator: SVG Repo Mixer Tools -->
<svg version="1.1" id="Layer_1" xmlns="http://www.w3.org/2000/svg" xmlns:xlink="http://www.w3.org/1999/xlink" 
	 viewBox="0 0 512 512" xml:space="preserve">
<g>
	<rect x="183.963" y="352.039" style="fill:#77AAD4;" width="48.022" height="24.011"/>
	<rect x="280.012" y="352.039" style="fill:#77AAD4;" width="48.022" height="24.011"/>
	<rect x="320.026" y="167.961" style="fill:#77AAD4;" width="24.011" height="56.026"/>
	<rect x="167.961" y="167.961" style="fill:#77AAD4;" width="24.011" height="56.026"/>
</g>
<g>
	<path style="fill:#1D71B8;" d="M239.992,504.115c0-17.681-14.334-32.014-32.015-32.014c-17.68,0-32.014,14.333-32.014,32.014
		H239.992z"/>
	<path style="fill:#1D71B8;" d="M337.017,504.115c0-17.681-14.335-32.014-32.015-32.014c-17.681,0-32.015,14.333-32.015,32.014
		H337.017z"/>
</g>
<g>
	<rect x="191.974" y="175.962" style="fill:#FAC15C;" width="128.063" height="176.078"/>
	<rect x="215.986" y="7.885" style="fill:#FAC15C;" width="80.038" height="136.064"/>
</g>
<g>
	<rect x="256" y="7.885" style="fill:#F9B233;" width="40.014" height="136.064"/>
	<rect x="256" y="175.962" style="fill:#F9B233;" width="64.029" height="176.078"/>
</g>
<circle style="fill:#FFFFFF;" cx="256" cy="231.988" r="24.011"/>
<g>
	<polygon style="fill:#1D1D1B;" points="160.074,167.959 160.074,184.086 151.952,184.086 151.952,199.856 160.074,199.856 
		160.074,223.986 175.844,223.986 175.844,167.959 	"/>
	<path style="fill:#1D1D1B;" d="M87.803,280.667h-15.77v-30.381h15.77V280.667z M89.063,237.003l-15.357-3.583
		c2.635-11.29,8.326-21.669,16.457-30.017l11.296,11.004C95.331,220.697,91.045,228.511,89.063,237.003z M111.714,206.388
		l-7.951-13.62c9.731-5.679,20.86-8.682,32.181-8.682h0.816v15.77h-0.816C127.412,199.856,119.034,202.114,111.714,206.388z"/>
	<path style="fill:#1D1D1B;" d="M87.803,304.926v-8.908h-15.77v8.908c-18.237,3.671-32.014,19.813-32.014,39.115h15.77
		c0-13.306,10.825-24.13,24.129-24.13c13.306,0,24.13,10.825,24.13,24.13h15.77C119.819,324.739,106.04,308.597,87.803,304.926z"/>
	<polygon style="fill:#1D1D1B;" points="360.048,184.086 351.926,184.086 351.926,167.959 336.156,167.959 336.156,223.986 
		351.926,223.986 351.926,199.856 360.048,199.856 	"/>
	<path style="fill:#1D1D1B;" d="M439.967,280.667h-15.77v-30.381h15.77V280.667z M422.937,237.003
		c-1.982-8.493-6.268-16.306-12.395-22.595l11.296-11.004c8.131,8.347,13.822,18.726,16.457,30.017L422.937,237.003z
		 M400.286,206.388c-7.32-4.273-15.7-6.532-24.231-6.532h-0.816v-15.77h0.816c11.323,0,22.45,3.002,32.181,8.682L400.286,206.388z"
		/>
	<path style="fill:#1D1D1B;" d="M439.967,304.926v-8.908h-15.77v8.908c-18.237,3.671-32.015,19.813-32.015,39.115h15.77
		c0-13.306,10.825-24.13,24.13-24.13c13.305,0,24.129,10.825,24.129,24.13h15.77C471.982,324.739,458.204,308.597,439.967,304.926z"
		/>
</g>
<g>
	<rect x="239.988" y="112.051" style="fill:#FFFFFF;" width="32.014" height="15.77"/>
	<rect x="232.103" y="31.896" style="fill:#FFFFFF;" width="15.77" height="32.014"/>
	<rect x="264.127" y="31.896" style="fill:#FFFFFF;" width="15.77" height="32.014"/>
</g>
<g>
	<rect x="200.09" y="408.076" style="fill:#1D1D1B;" width="15.77" height="32.014"/>
	<polygon style="fill:#1D1D1B;" points="183.967,383.94 200.092,383.94 200.092,392.063 215.862,392.063 215.862,383.94 
		231.989,383.94 231.989,368.17 183.967,368.17 	"/>
	<polygon style="fill:#1D1D1B;" points="328.033,368.17 280.011,368.17 280.011,383.94 296.138,383.94 296.138,392.063 
		311.908,392.063 311.908,383.94 328.033,383.94 	"/>
	<rect x="296.14" y="408.076" style="fill:#1D1D1B;" width="15.77" height="32.014"/>
	<path style="fill:#1D1D1B;" d="M215.862,465.002v-8.91h-15.77v8.91c-18.238,3.669-32.014,19.811-32.014,39.113V512h79.799v-7.885
		C247.877,484.814,234.1,468.671,215.862,465.002z M185.171,496.23c3.275-9.444,12.262-16.244,22.807-16.244
		c10.545,0,19.533,6.8,22.808,16.244H185.171z"/>
	<path style="fill:#1D1D1B;" d="M311.908,465.002v-8.91h-15.77v8.91c-18.238,3.669-32.015,19.811-32.015,39.113V512h79.799v-7.885
		C343.922,484.814,330.144,468.671,311.908,465.002z M281.214,496.23c3.275-9.444,12.263-16.244,22.808-16.244
		s19.532,6.8,22.807,16.244H281.214z"/>
	<path style="fill:#1D1D1B;" d="M303.903,151.833V39.781h24.129v-15.77h-24.129V0h-95.807v24.011h-24.129v15.77h24.129v112.051
		h40.019v16.245h-64.029v191.851h143.83V168.078h-64.03v-16.245H303.903z M256,248.115c-8.892,0-16.126-7.234-16.126-16.126
		s7.234-16.126,16.126-16.126c8.892,0,16.126,7.234,16.126,16.126S264.892,248.115,256,248.115z M312.144,344.159h-48.259v-81.262
		c13.786-3.52,24.011-16.042,24.011-30.908c0-17.588-14.309-31.896-31.896-31.896s-31.896,14.309-31.896,31.896
		c0,14.867,10.225,27.389,24.011,30.908v81.262h-48.259V183.848h112.29v160.311H312.144z M223.867,15.77h64.267v120.293h-64.267
		V15.77z"/>
</g>
</svg>