<?xml version="1.0" encoding="utf-8"?>
<!-- Generator: Adobe Illustrator 24.0.0, SVG Export Plug-In . SVG Version: 6.00 Build 0)  -->
<svg version="1.1" xmlns="http://www.w3.org/2000/svg" xmlns:xlink="http://www.w3.org/1999/xlink" x="0px" y="0px"
	 viewBox="0 0 256 256" enable-background="new 0 0 256 256" xml:space="preserve">
<g id="Layer_2" display="none">
	<rect x="-428" y="-120" display="inline" fill="#FFFFFF" width="1786" height="5896"/>
</g>
<g id="Layer_1">
	<g>
		<path fill="#AFAFAF" d="M168.31,163.242l-1.31,6.5l-0.81,4c-0.52,2.58-2.79,4.44-5.42,4.44H95.42c-2.64,0-4.9-1.86-5.43-4.44
			l-0.81-4l-1.31-6.5H168.31z"/>
		<polygon fill="#7D7B79" points="168.31,163.242 167,169.742 89.18,169.742 87.87,163.242 		"/>
		<path fill="#F0C020" d="M71.033,148.256l-29.306,29.306v33.576c0,3.673-2.965,6.638-6.638,6.638c-3.662,0-6.638-2.965-6.638-6.638
			v-36.32c0-1.759,0.697-3.452,1.947-4.691l38.543-38.543L71.033,148.256z"/>
		<path fill="#F0C020" d="M227.733,174.818v36.32c0,3.673-2.976,6.638-6.638,6.638c-3.673,0-6.638-2.965-6.638-6.638v-33.576
			l-29.306-29.306l2.091-16.672l38.543,38.543C227.036,171.366,227.733,173.059,227.733,174.818z"/>
		<path fill="#AFAFAF" d="M67.5,120.022l-22.35-7.26c-6.84-2.22-11.48-8.59-11.48-15.78v-38.47c0-3.64,2.81-6.81,6.45-6.91
			c3.76-0.1,6.83,2.91,6.83,6.64v31.99c0,3.05,2.48,5.53,5.53,5.53h11.99L67.5,120.022z"/>
		<path fill="#72C2E9" d="M191.712,95.762l-3.031,24.261l-1.438,11.561l-2.091,16.672l-1.261,10.145
			c-0.343,2.766-2.699,4.846-5.487,4.846H77.781c-2.788,0-5.144-2.08-5.487-4.846l-1.261-10.145l-2.091-16.672l-1.438-11.561
			l-3.031-24.261H191.712z"/>
		<path fill="#C5E5FE" d="M104.737,155.746H81.73c-1.381,0-2.5-1.119-2.5-2.5s1.119-2.5,2.5-2.5h23.007c1.381,0,2.5,1.119,2.5,2.5
			S106.118,155.746,104.737,155.746z"/>
		<path fill="#C5E5FE" d="M174.455,155.746h-23.007c-1.381,0-2.5-1.119-2.5-2.5s1.119-2.5,2.5-2.5h20.8l3.797-30.409
			c0.171-1.369,1.423-2.335,2.791-2.171c1.37,0.171,2.342,1.421,2.171,2.791l-4.071,32.599
			C176.779,154.807,175.715,155.746,174.455,155.746z M179.455,113.205c-1.37-0.171-2.342-1.421-2.171-2.791l0.62-4.961
			c0.172-1.37,1.42-2.337,2.791-2.171c1.37,0.171,2.342,1.421,2.171,2.791l-0.62,4.961
			C182.078,112.381,180.856,113.373,179.455,113.205z"/>
		<path fill="#AFAFAF" d="M222.51,58.512v38.47c0,7.19-4.63,13.56-11.47,15.78l-22.36,7.26l3.03-24.26h11.99
			c3.06,0,5.54-2.48,5.54-5.53v-31.99c0-3.73,3.06-6.74,6.82-6.64C219.7,51.702,222.51,54.872,222.51,58.512z"/>
		<path fill="#F0C020" d="M46.95,58.242v10.32H33.67v-10.05c0-3.64,2.81-6.81,6.45-6.91C43.88,51.502,46.95,54.512,46.95,58.242z"/>
		<path fill="#F0C020" d="M222.51,58.512v10.05h-13.27v-10.32c0-3.73,3.06-6.74,6.82-6.64C219.7,51.702,222.51,54.872,222.51,58.512
			z"/>
		<circle fill="#FC5D3D" cx="128.092" cy="129.504" r="23.355"/>
		<circle fill="#EFEFEF" cx="128.092" cy="129.504" r="12.999"/>
		<path fill="#F0C020" d="M33.212,134.074c-3.501-1.157-7.117-2.168-9.147-10.913c-1.87,8.055-4.865,9.498-9.147,10.913
			c6.984,2.308,8.037,6.129,9.147,10.913C25.978,136.739,29.143,135.418,33.212,134.074z"/>
		<path fill="#F0C020" d="M137.147,43.079c-3.501-1.157-7.117-2.168-9.147-10.913c-1.87,8.055-4.865,9.498-9.147,10.913
			c6.984,2.308,8.037,6.129,9.147,10.913C129.913,45.745,133.079,44.423,137.147,43.079z"/>
		<path fill="#F0C020" d="M236.88,131.581c-3.501-1.157-7.117-2.168-9.147-10.913c-1.87,8.055-4.866,9.498-9.147,10.913
			c6.984,2.308,8.037,6.129,9.147,10.913C229.646,134.247,232.812,132.925,236.88,131.581z"/>
		<path fill="#F0C020" d="M171.788,72.899H84.397c-2.469,0-4.639,1.637-5.318,4.011l-5.391,18.853h108.809l-5.391-18.853
			C176.427,74.536,174.257,72.899,171.788,72.899z"/>
		<path fill="#F8E5B0" d="M84.934,89.166c-1.328-0.38-2.096-1.764-1.716-3.091l1.391-4.863c0.307-1.073,1.288-1.813,2.404-1.813
			h39.942c1.381,0,2.5,1.119,2.5,2.5s-1.119,2.5-2.5,2.5H88.898l-0.873,3.051C87.647,88.774,86.267,89.546,84.934,89.166z
			 M139.642,84.399h-2.688c-1.381,0-2.5-1.119-2.5-2.5s1.119-2.5,2.5-2.5h2.688c1.381,0,2.5,1.119,2.5,2.5
			S141.023,84.399,139.642,84.399z"/>
		<g>
			<path d="M207.39,151.732c-0.98,0.97-0.98,2.56,0,3.53c0.965,0.985,2.558,0.993,3.53,0c0.98-0.97,0.98-2.56,0-3.53
				C209.98,150.781,208.33,150.781,207.39,151.732z"/>
			<path d="M251.64,32.231h-33.454v-8.833c0-1.381-1.119-2.5-2.5-2.5s-2.5,1.119-2.5,2.5v8.833h-33.455c-1.381,0-2.5,1.119-2.5,2.5
				s1.119,2.5,2.5,2.5h33.455v12.275c-3.718,1.139-6.45,4.586-6.45,8.734v31.991c0,1.672-1.36,3.032-3.032,3.032
				c-6.766,0-12.114,0-19.322,0l-4.872-17.04c-0.98-3.429-4.156-5.823-7.722-5.823H84.397c-3.566,0-6.742,2.395-7.722,5.823
				l-4.873,17.041c-5.75,0-6.839-0.001-19.322-0.001c-1.67,0-3.03-1.36-3.03-3.03v-31.99c-0.008-4.159-2.815-7.674-6.635-8.776
				V37.231h33.455c1.381,0,2.5-1.119,2.5-2.5s-1.119-2.5-2.5-2.5H42.814v-8.833c0-1.381-1.119-2.5-2.5-2.5s-2.5,1.119-2.5,2.5v8.833
				H4.36c-1.381,0-2.5,1.119-2.5,2.5s1.119,2.5,2.5,2.5h33.454v12.242c-4.065,1.192-6.645,4.979-6.645,9.039v16.84
				c0,1.37,1.13,2.5,2.5,2.5c1.38,0,2.5-1.13,2.5-2.5v-4.29h8.28v19.17c0,4.43,3.6,8.03,8.03,8.03h9.785l2.27,18.175l-18.614-6.045
				c-5.83-1.9-9.75-7.29-9.75-13.41v-1.63c0-1.38-1.12-2.5-2.5-2.5c-1.37,0-2.5,1.12-2.5,2.5v1.63c0,8.29,5.31,15.59,13.2,18.16
				l20.848,6.769l1.095,8.767l-37.674,37.673c-1.708,1.692-2.687,4.049-2.687,6.466v36.32c0,5.039,4.099,9.138,9.138,9.138
				s9.138-4.099,9.138-9.138v-32.541l24.953-24.954l0.633,5.065c0.497,4.012,3.923,7.038,7.968,7.038h8.045l1.716,8.499
				c0.766,3.73,4.079,6.438,7.878,6.438h65.35c3.808,0,7.118-2.711,7.87-6.444l1.715-8.492h8.049c4.045,0,7.471-3.025,7.968-7.037
				l0.633-5.072l24.955,24.955v32.55c0.01,5.03,4.11,9.12,9.14,9.13c5.03,0,9.13-4.1,9.13-9.13v-36.32c0-2.42-0.98-4.78-2.68-6.47
				l-9.55-9.55c-0.95-0.94-2.6-0.94-3.54,0c-0.97,0.97-0.97,2.56,0,3.53l9.56,9.56c0.77,0.77,1.21,1.83,1.21,2.93v36.32
				c0,2.27-1.86,4.13-4.13,4.13c-2.28,0-4.14-1.85-4.14-4.13v-33.58c0-0.67-0.26-1.3-0.74-1.77l-28.431-28.432
				c1.184-9.482,0.924-7.409,1.301-10.398l11.23,11.23c0.94,0.95,2.59,0.95,3.53,0c0.98-0.97,0.98-2.56,0-3.53l-13.979-13.979
				l1.095-8.773l20.846-6.767c7.895-2.568,13.199-9.867,13.199-18.164V58.516c0-4.324-2.918-8.03-6.826-9.099V37.231h33.454
				c1.381,0,2.5-1.119,2.5-2.5S253.021,32.231,251.64,32.231z M44.45,66.061h-8.28v-7.55c0-2.36,1.84-4.39,4.02-4.41
				c0.06,0,0.09,0,0.11,0c2.29,0,4.15,1.86,4.15,4.14V66.061z M81.482,77.596c0.37-1.293,1.568-2.197,2.915-2.197h87.391
				c1.346,0,2.545,0.904,2.915,2.198l4.479,15.666H77.002L81.482,77.596z M39.959,175.794c-0.469,0.469-0.732,1.104-0.732,1.768
				v33.576c0,2.282-1.856,4.138-4.138,4.138s-4.138-1.856-4.138-4.138v-36.32c0-1.092,0.44-2.155,1.214-2.923l34.931-34.931
				c0.153,1.216-0.047-0.381,1.298,10.393L39.959,175.794z M163.739,173.247c-0.284,1.411-1.533,2.435-2.969,2.435H95.42
				c-1.437,0-2.69-1.027-2.979-2.437l-1.515-7.5h74.33L163.739,173.247z M181.41,158.093c-0.188,1.512-1.48,2.653-3.006,2.653
				c-8.576,0-88.704,0-100.623,0c-1.526,0-2.818-1.141-3.006-2.654c-0.899-7.201-6.268-50.194-7.471-59.83
				c9.597,0,116.825,0,121.576,0C187.768,107.166,182.58,148.717,181.41,158.093z M220.011,96.979
				c0,6.125-3.917,11.513-9.744,13.409l-18.617,6.043l2.269-18.169h9.785c4.429,0,8.032-3.603,8.032-8.032V71.061h8.275V96.979z
				 M220.011,58.516v7.545h-8.275V58.24c0-2.313,1.88-4.187,4.257-4.139C218.208,54.161,220.011,56.142,220.011,58.516z"/>
			<circle cx="33.67" cy="85.351" r="2.5"/>
			<path d="M104.96,125.391c1.269,0.388,2.707-0.354,3.1-1.7c0.38-1.33-0.38-2.72-1.71-3.1c-1.3-0.37-2.72,0.42-3.1,1.71
				C102.87,123.621,103.64,125.011,104.96,125.391z"/>
			<path d="M128.09,155.362c14.285,0,25.86-11.56,25.86-25.86c0-14.292-11.561-25.85-25.86-25.85c-7.54,0-14.68,3.28-19.6,8.99
				c-0.922,1.095-0.761,2.632,0.26,3.53c1.01,0.86,2.66,0.74,3.53-0.27c3.97-4.61,9.74-7.25,15.81-7.25
				c11.48,0.02,20.84,9.37,20.86,20.85c-0.02,11.48-9.38,20.84-20.87,20.86c-10.28,0-19.15-7.66-20.62-17.83
				c-0.2-1.34-1.49-2.31-2.84-2.11c-1.36,0.2-2.31,1.47-2.11,2.83C104.316,145.754,115.103,155.362,128.09,155.362z"/>
			<path d="M128.092,145.003c8.546,0,15.499-6.953,15.499-15.499s-6.953-15.499-15.499-15.499s-15.499,6.953-15.499,15.499
				S119.546,145.003,128.092,145.003z M128.092,119.005c5.789,0,10.499,4.71,10.499,10.499s-4.71,10.499-10.499,10.499
				s-10.499-4.71-10.499-10.499S122.303,119.005,128.092,119.005z"/>
			<path d="M120.559,190.445c0.977-0.976,0.977-2.559,0-3.535c-0.976-0.977-2.56-0.977-3.535,0c-7.054,7.054-7.054,18.531,0,25.584
				c5.104,5.104,5.104,13.409,0,18.514c-0.976,0.976-0.976,2.559,0,3.536c0.977,0.976,2.559,0.976,3.536,0
				c7.053-7.054,7.053-18.531,0-25.585C115.443,203.842,115.442,195.561,120.559,190.445z"/>
			<path d="M138.977,190.445c0.976-0.976,0.976-2.559,0-3.536c-0.977-0.976-2.559-0.976-3.536,0c-7.053,7.054-7.053,18.531,0,25.585
				c5.117,5.116,5.117,13.396,0,18.513c-0.977,0.976-0.977,2.559,0,3.535c0.976,0.977,2.56,0.977,3.535,0
				c7.054-7.054,7.054-18.531,0-25.584C133.873,203.854,133.873,195.549,138.977,190.445z"/>
			<path d="M33.996,136.447c2.279-0.753,2.284-3.994,0-4.748c-3.283-1.076-5.799-1.795-7.497-9.104c-0.597-2.573-4.275-2.566-4.87,0
				c-1.667,7.179-3.986,7.945-7.496,9.104c-2.279,0.753-2.284,3.993,0,4.748c5.831,1.927,6.493,4.782,7.496,9.104
				c0.599,2.578,4.272,2.578,4.871,0C28.165,138.374,30.485,137.608,33.996,136.447z M24.108,137.721
				c-0.799-1.289-1.882-2.51-3.413-3.593c1.258-0.897,2.392-2.088,3.377-3.793c0.992,1.721,2.105,2.902,3.256,3.759
				C26.135,134.965,25.054,136.112,24.108,137.721z"/>
			<path d="M118.069,45.452c5.831,1.927,6.493,4.782,7.496,9.104c0.599,2.578,4.272,2.578,4.871,0
				c1.665-7.178,3.985-7.944,7.496-9.104c2.279-0.753,2.284-3.994,0-4.748c-3.283-1.076-5.799-1.795-7.497-9.104
				c-0.597-2.573-4.275-2.566-4.87,0c-1.667,7.179-3.986,7.945-7.496,9.104C115.79,41.458,115.785,44.698,118.069,45.452z
				 M128.009,39.34c0.992,1.721,2.105,2.902,3.256,3.759c-1.195,0.872-2.275,2.018-3.221,3.627c-0.799-1.289-1.882-2.51-3.413-3.593
				C125.889,42.236,127.023,41.045,128.009,39.34z"/>
			<path d="M237.664,129.207c-3.283-1.076-5.799-1.795-7.497-9.104c-0.597-2.573-4.275-2.566-4.87,0
				c-1.667,7.179-3.986,7.945-7.496,9.104c-2.279,0.753-2.284,3.993,0,4.748c5.831,1.927,6.493,4.782,7.496,9.104
				c0.599,2.578,4.272,2.578,4.871,0c1.665-7.178,3.985-7.944,7.496-9.104C239.943,133.202,239.948,129.961,237.664,129.207z
				 M227.777,135.228c-0.799-1.289-1.882-2.51-3.413-3.593c1.258-0.897,2.392-2.088,3.377-3.793
				c0.992,1.721,2.105,2.902,3.256,3.759C229.803,132.473,228.722,133.62,227.777,135.228z"/>
			<path d="M148.854,80.5c-1.381,0-2.5,1.119-2.5,2.5v3.269c0,1.381,1.119,2.5,2.5,2.5s2.5-1.119,2.5-2.5V83
				C151.354,81.619,150.235,80.5,148.854,80.5z"/>
			<path d="M157.937,80.5c-1.381,0-2.5,1.119-2.5,2.5v3.269c0,1.381,1.119,2.5,2.5,2.5s2.5-1.119,2.5-2.5V83
				C160.437,81.619,159.317,80.5,157.937,80.5z"/>
			<path d="M167.018,80.5c-1.381,0-2.5,1.119-2.5,2.5v3.269c0,1.381,1.119,2.5,2.5,2.5s2.5-1.119,2.5-2.5V83
				C169.518,81.619,168.399,80.5,167.018,80.5z"/>
		</g>
	</g>
</g>
</svg>
