<?xml version="1.0" encoding="utf-8"?>
<!-- Generator: Adobe Illustrator 24.0.0, SVG Export Plug-In . SVG Version: 6.00 Build 0)  -->
<svg version="1.1" id="Layer_1" xmlns="http://www.w3.org/2000/svg" xmlns:xlink="http://www.w3.org/1999/xlink" x="0px" y="0px"
	 viewBox="0 0 256 256" style="enable-background:new 0 0 256 256;" xml:space="preserve">
<style type="text/css">
	.st0{fill:#FC5D3D;}
	.st1{fill:#AFAFAF;}
	.st2{fill:#72C2E9;}
	.st3{fill:#FFFFFF;}
	.st4{fill:#EFEFEF;}
	.st5{fill:#878787;}
	.st6{fill:#F0C020;}
	.st7{fill:#F8E5B0;}
	.st8{fill:#B34F33;}
	.st9{fill:#FFCBC3;}
	.st10{fill:#FFB69F;}
	.st11{fill:#C5E5FE;}
	.st12{fill:#13BF6D;}
	.st13{fill:#F9E5AF;}
	.st14{fill:#7A7380;}
	.st15{fill:#72C1E8;}
	.st16{fill:#C5E5FF;}
	.st17{fill:#FFCBC2;}
	.st18{fill:#6E6D6C;}
	.st19{fill:#F2E1D7;}
	.st20{fill:#7D7B79;}
	.st21{fill:#D6C0B3;}
	.st22{fill:#76FFBB;}
	.st23{fill:#CF941C;}
	.st24{fill:#7C7B7A;}
	.st25{fill:#FEB69F;}
	.st26{fill:#E8A61E;}
	.st27{fill:#EFF0F0;}
	.st28{fill:#EDC21D;}
	.st29{fill:#4BA5C8;}
	.st30{fill:#E8A61F;}
	.st31{fill:#823A26;}
	.st32{fill:#4C4944;}
	.st33{fill:#4C4945;}
</style>
<g>
	<path class="st1" d="M230.902,216.625H25.098v-8.969c0-2.761,2.239-5,5-5h195.804c2.761,0,5,2.239,5,5V216.625z"/>
	<path class="st2" d="M244.667,250.125H11.333c-2.761,0-5-2.239-5-5v-23.5c0-2.761,2.239-5,5-5h233.333c2.761,0,5,2.239,5,5v23.5
		C249.667,247.886,247.428,250.125,244.667,250.125z"/>
	<circle class="st3" cx="27.47" cy="233.5" r="6.136"/>
	<circle class="st3" cx="60.98" cy="233.5" r="6.136"/>
	<circle class="st3" cx="94.49" cy="233.5" r="6.136"/>
	<circle class="st3" cx="128" cy="233.5" r="6.136"/>
	<circle class="st3" cx="161.51" cy="233.5" r="6.136"/>
	<circle class="st3" cx="195.02" cy="233.5" r="6.136"/>
	<circle class="st3" cx="228.53" cy="233.5" r="6.136"/>
	<polygon class="st0" points="149.96,57.607 106.04,57.607 100.646,39.375 155.354,39.375 	"/>
	<path class="st1" d="M141.135,57.607h-26.27v13.032c0,2.267,1.838,4.105,4.105,4.105h18.061c2.267,0,4.105-1.838,4.105-4.105
		V57.607z"/>
	<path class="st2" d="M244.667,39.375H11.333c-2.761,0-5-2.239-5-5v-23.5c0-2.761,2.239-5,5-5h233.333c2.761,0,5,2.239,5,5v23.5
		C249.667,37.136,247.428,39.375,244.667,39.375z"/>
	<circle class="st3" cx="60.98" cy="22.75" r="6.136"/>
	<circle class="st3" cx="94.49" cy="22.75" r="6.136"/>
	<circle class="st3" cx="128" cy="22.75" r="6.136"/>
	<circle class="st3" cx="161.51" cy="22.75" r="6.136"/>
	<circle class="st3" cx="195.02" cy="22.75" r="6.136"/>
	<circle class="st3" cx="228.53" cy="22.75" r="6.136"/>
	<circle class="st3" cx="27.47" cy="22.75" r="6.136"/>
	<polygon class="st6" points="163.805,85.21 163.805,100.521 163.805,116.036 156.336,125.447 151.262,131.854 162.246,140.997 
		191.015,140.997 191.02,100.521 191.02,85.21 	"/>
	<rect x="163.806" y="85.21" class="st0" width="27.214" height="15.311"/>
	<path class="st7" d="M181.268,128.021c-1.381,0-2.5-1.119-2.5-2.5v-25c0-1.381,1.119-2.5,2.5-2.5s2.5,1.119,2.5,2.5v25
		C183.768,126.901,182.648,128.021,181.268,128.021z"/>
	<polygon class="st26" points="191.02,132.357 191.02,140.999 162.249,140.999 151.262,131.854 156.336,125.447 164.623,132.357 	
		"/>
	<path class="st6" d="M191.02,141.006v61.65H64.98v-79.223c0-3.757,4.382-5.808,7.267-3.403l25.159,20.976v-17.57
		c0-3.757,4.383-5.809,7.268-3.402l25.145,20.973v-17.571c0-3.757,4.382-5.808,7.268-3.402l14.175,11.821l10.983,9.152H191.02z"/>
	<path class="st7" d="M116.096,196.039h-28c-1.381,0-2.5-1.119-2.5-2.5s1.119-2.5,2.5-2.5h28c1.381,0,2.5,1.119,2.5,2.5
		S117.477,196.039,116.096,196.039z M78.096,196.039h-0.913c-1.381,0-2.5-1.119-2.5-2.5s1.119-2.5,2.5-2.5h0.913
		c1.381,0,2.5,1.119,2.5,2.5S79.477,196.039,78.096,196.039z"/>
	<path class="st7" d="M181.268,196.039h-41.363c-1.381,0-2.5-1.119-2.5-2.5s1.119-2.5,2.5-2.5h38.863V153.98
		c0-1.381,1.119-2.5,2.5-2.5s2.5,1.119,2.5,2.5v39.559C183.768,194.92,182.648,196.039,181.268,196.039z"/>
	<rect x="116.096" y="173.76" class="st18" width="23.809" height="28.897"/>
	<path d="M27.47,224.863c-4.762,0-8.636,3.874-8.636,8.637s3.874,8.637,8.636,8.637s8.636-3.874,8.636-8.637
		S32.232,224.863,27.47,224.863z M27.47,237.137c-2.005,0-3.636-1.632-3.636-3.637s1.631-3.637,3.636-3.637s3.636,1.632,3.636,3.637
		S29.475,237.137,27.47,237.137z"/>
	<path d="M60.98,224.863c-4.762,0-8.637,3.874-8.637,8.637s3.875,8.637,8.637,8.637s8.636-3.874,8.636-8.637
		S65.742,224.863,60.98,224.863z M60.98,237.137c-2.005,0-3.637-1.632-3.637-3.637s1.631-3.637,3.637-3.637
		c2.005,0,3.636,1.632,3.636,3.637S62.985,237.137,60.98,237.137z"/>
	<path d="M94.49,224.863c-4.762,0-8.636,3.874-8.636,8.637s3.874,8.637,8.636,8.637s8.637-3.874,8.637-8.637
		S99.252,224.863,94.49,224.863z M94.49,237.137c-2.005,0-3.636-1.632-3.636-3.637s1.631-3.637,3.636-3.637
		c2.005,0,3.637,1.632,3.637,3.637S96.495,237.137,94.49,237.137z"/>
	<path d="M128,224.863c-4.762,0-8.636,3.874-8.636,8.637s3.874,8.637,8.636,8.637s8.636-3.874,8.636-8.637
		S132.762,224.863,128,224.863z M128,237.137c-2.005,0-3.636-1.632-3.636-3.637s1.631-3.637,3.636-3.637s3.636,1.632,3.636,3.637
		S130.005,237.137,128,237.137z"/>
	<path d="M161.51,224.863c-4.762,0-8.637,3.874-8.637,8.637s3.875,8.637,8.637,8.637s8.636-3.874,8.636-8.637
		S166.272,224.863,161.51,224.863z M161.51,237.137c-2.005,0-3.637-1.632-3.637-3.637s1.631-3.637,3.637-3.637
		c2.005,0,3.636,1.632,3.636,3.637S163.515,237.137,161.51,237.137z"/>
	<path d="M195.02,224.863c-4.762,0-8.636,3.874-8.636,8.637s3.874,8.637,8.636,8.637s8.637-3.874,8.637-8.637
		S199.782,224.863,195.02,224.863z M195.02,237.137c-2.005,0-3.636-1.632-3.636-3.637s1.631-3.637,3.636-3.637
		c2.005,0,3.637,1.632,3.637,3.637S197.025,237.137,195.02,237.137z"/>
	<path d="M228.53,224.863c-4.762,0-8.636,3.874-8.636,8.637s3.874,8.637,8.636,8.637s8.636-3.874,8.636-8.637
		S233.292,224.863,228.53,224.863z M228.53,237.137c-2.005,0-3.636-1.632-3.636-3.637s1.631-3.637,3.636-3.637
		s3.636,1.632,3.636,3.637S230.535,237.137,228.53,237.137z"/>
	<path d="M252.167,245.125v-23.5c0-4.136-3.364-7.5-7.5-7.5H233.4v-6.465c0-4.141-3.36-7.5-7.5-7.5h-6.43c-1.38,0-2.5,1.12-2.5,2.5
		c0,1.37,1.12,2.5,2.5,2.5h6.43c1.38,0,2.5,1.12,2.5,2.5v6.46H27.6v-6.46c0-1.38,1.12-2.5,2.5-2.5c1.797,0,167.225,0,169.37,0
		c1.38,0,2.5-1.13,2.5-2.5c0-1.38-1.12-2.5-2.5-2.5h-5.95c0-71.91-0.011-52.757-0.003-99.613c0-0.01,0.003-0.018,0.003-0.028
		s-0.003-0.018-0.003-0.028l0.003-15.282c0-1.37-1.114-2.5-2.5-2.5h-27.21c-1.381,0-2.5,1.111-2.5,2.5v29.95l-10.415,13.129
		l-12.205-10.18c-4.495-3.769-11.34-0.534-11.37,5.33v12.23l-21.05-17.561c-4.444-3.758-11.36-0.559-11.36,5.33v12.23l-21.06-17.561
		c-4.481-3.759-11.34-0.556-11.37,5.32v6.92c0,1.38,1.12,2.5,2.5,2.5c1.38,0,2.5-1.12,2.5-2.5v-6.92c0-1.613,1.894-2.543,3.16-1.479
		l25.17,20.979c0.73,0.61,1.79,0.74,2.66,0.34c0.87-0.41,1.44-1.3,1.44-2.26v-17.57c0-1.607,1.851-2.56,3.16-1.489l25.15,20.979
		c0.73,0.61,1.79,0.74,2.66,0.34c0.87-0.41,1.44-1.3,1.44-2.26v-17.57c0-1.61,1.886-2.559,3.16-1.489l25.16,20.979
		c0.45,0.37,1.02,0.58,1.6,0.58h26.28v56.65h-46.116v-26.4c0-1.381-1.119-2.5-2.5-2.5h-23.809c-1.381,0-2.5,1.119-2.5,2.5v26.4
		H67.48V150.35c0-1.38-1.12-2.5-2.5-2.5c-1.38,0-2.5,1.12-2.5,2.5v49.811H30.1c-4.14,0-7.5,3.359-7.5,7.5v6.465H11.333
		c-4.136,0-7.5,3.364-7.5,7.5v23.5c0,4.136,3.364,7.5,7.5,7.5h233.333C248.802,252.625,252.167,249.261,252.167,245.125z
		 M188.52,87.71v10.31H166.3V87.71H188.52z M165.76,117.59c0.36-0.45,0.54-0.99,0.54-1.55V103.02h22.22v35.48h-25.37l-8.41-7.01
		L165.76,117.59z M118.596,176.26h18.809v23.896h-18.809V176.26z M8.833,245.125v-23.5c0-1.379,1.122-2.5,2.5-2.5h233.333
		c1.378,0,2.5,1.121,2.5,2.5v23.5c0,1.379-1.122,2.5-2.5,2.5H11.333C9.955,247.625,8.833,246.504,8.833,245.125z"/>
	<circle cx="209.47" cy="202.66" r="2.5"/>
	<path d="M60.98,31.387c4.762,0,8.636-3.874,8.636-8.637s-3.874-8.637-8.636-8.637s-8.637,3.874-8.637,8.637
		S56.218,31.387,60.98,31.387z M60.98,19.113c2.005,0,3.636,1.632,3.636,3.637s-1.631,3.637-3.636,3.637
		c-2.005,0-3.637-1.632-3.637-3.637S58.975,19.113,60.98,19.113z"/>
	<path d="M103.126,22.75c0-4.763-3.875-8.637-8.637-8.637s-8.636,3.874-8.636,8.637s3.874,8.637,8.636,8.637
		S103.126,27.513,103.126,22.75z M90.854,22.75c0-2.005,1.631-3.637,3.636-3.637c2.005,0,3.637,1.632,3.637,3.637
		s-1.631,3.637-3.637,3.637C92.485,26.387,90.854,24.755,90.854,22.75z"/>
	<path d="M136.636,22.75c0-4.763-3.874-8.637-8.636-8.637s-8.636,3.874-8.636,8.637s3.874,8.637,8.636,8.637
		S136.636,27.513,136.636,22.75z M124.364,22.75c0-2.005,1.631-3.637,3.636-3.637s3.636,1.632,3.636,3.637s-1.631,3.637-3.636,3.637
		S124.364,24.755,124.364,22.75z"/>
	<path d="M170.146,22.75c0-4.763-3.874-8.637-8.636-8.637s-8.637,3.874-8.637,8.637s3.875,8.637,8.637,8.637
		S170.146,27.513,170.146,22.75z M157.874,22.75c0-2.005,1.631-3.637,3.637-3.637c2.005,0,3.636,1.632,3.636,3.637
		s-1.631,3.637-3.636,3.637C159.505,26.387,157.874,24.755,157.874,22.75z"/>
	<path d="M203.657,22.75c0-4.763-3.875-8.637-8.637-8.637s-8.636,3.874-8.636,8.637s3.874,8.637,8.636,8.637
		S203.657,27.513,203.657,22.75z M191.384,22.75c0-2.005,1.631-3.637,3.636-3.637c2.005,0,3.637,1.632,3.637,3.637
		s-1.631,3.637-3.637,3.637C193.015,26.387,191.384,24.755,191.384,22.75z"/>
	<path d="M237.167,22.75c0-4.763-3.874-8.637-8.636-8.637s-8.636,3.874-8.636,8.637s3.874,8.637,8.636,8.637
		S237.167,27.513,237.167,22.75z M224.894,22.75c0-2.005,1.631-3.637,3.636-3.637s3.636,1.632,3.636,3.637s-1.631,3.637-3.636,3.637
		S224.894,24.755,224.894,22.75z"/>
	<circle cx="44.67" cy="39.37" r="2.5"/>
	<path d="M252.17,10.87c-0.01-4.13-3.37-7.49-7.5-7.49H11.33c-4.13,0-7.5,3.36-7.5,7.49v23.5c0,4.14,3.37,7.5,7.5,7.5h23.34
		c1.37,0,2.5-1.12,2.5-2.5c0-1.37-1.12-2.49-2.49-2.49l-0.01-0.01H11.33c-1.37,0-2.49-1.12-2.5-2.5v-23.5
		c0.01-1.37,1.13-2.49,2.5-2.49h233.34c1.37,0,2.49,1.12,2.5,2.49v23.5c-0.01,1.38-1.13,2.5-2.5,2.5h-190c-1.38,0-2.5,1.13-2.5,2.5
		c0,1.38,1.12,2.5,2.5,2.5h44.107l4.865,16.445c0.314,1.063,1.29,1.791,2.397,1.791h6.325v10.532c0,3.642,2.963,6.604,6.604,6.604
		h6.53v7.967c0,1.381,1.119,2.5,2.5,2.5s2.5-1.119,2.5-2.5v-7.967h6.53c3.642,0,6.604-2.963,6.604-6.604V60.106h6.325
		c1.107,0,2.083-0.729,2.397-1.791l4.865-16.445h87.447c4.13,0,7.49-3.36,7.5-7.5V10.87z M138.635,70.639
		c0,0.885-0.72,1.604-1.604,1.604H118.97c-0.885,0-1.604-0.72-1.604-1.604V60.106h21.27V70.639z M148.092,55.106
		c-14.631,0-25.453,0-40.185,0l-3.915-13.231h48.014L148.092,55.106z"/>
	<path d="M134.5,51.241c1.381,0,2.5-1.119,2.5-2.5v-0.5c0-1.381-1.119-2.5-2.5-2.5s-2.5,1.119-2.5,2.5v0.5
		C132,50.122,133.119,51.241,134.5,51.241z"/>
	<path d="M143.417,51.241c1.381,0,2.5-1.119,2.5-2.5v-0.5c0-1.381-1.119-2.5-2.5-2.5s-2.5,1.119-2.5,2.5v0.5
		C140.917,50.122,142.036,51.241,143.417,51.241z"/>
	<path d="M112,50.741h13.375c1.381,0,2.5-1.119,2.5-2.5s-1.119-2.5-2.5-2.5H112c-1.381,0-2.5,1.119-2.5,2.5
		S110.619,50.741,112,50.741z"/>
	<path d="M18.833,22.75c0,4.763,3.874,8.637,8.636,8.637s8.636-3.874,8.636-8.637s-3.874-8.637-8.636-8.637
		S18.833,17.987,18.833,22.75z M31.106,22.75c0,2.005-1.631,3.637-3.636,3.637s-3.636-1.632-3.636-3.637s1.631-3.637,3.636-3.637
		S31.106,20.745,31.106,22.75z"/>
	<path d="M84.857,162.352c1.381,0,2.5-1.119,2.5-2.5v-1.538c0-1.381-1.119-2.5-2.5-2.5s-2.5,1.119-2.5,2.5v1.538
		C82.357,161.232,83.477,162.352,84.857,162.352z"/>
	<path d="M102.115,162.352c1.381,0,2.5-1.119,2.5-2.5v-1.538c0-1.381-1.119-2.5-2.5-2.5s-2.5,1.119-2.5,2.5v1.538
		C99.615,161.232,100.734,162.352,102.115,162.352z"/>
	<path d="M121.872,159.852v-1.538c0-1.381-1.119-2.5-2.5-2.5s-2.5,1.119-2.5,2.5v1.538c0,1.381,1.119,2.5,2.5,2.5
		S121.872,161.232,121.872,159.852z"/>
	<path d="M139.128,159.852v-1.538c0-1.381-1.119-2.5-2.5-2.5s-2.5,1.119-2.5,2.5v1.538c0,1.381,1.119,2.5,2.5,2.5
		S139.128,161.232,139.128,159.852z"/>
	<path d="M153.885,162.352c1.381,0,2.5-1.119,2.5-2.5v-1.538c0-1.381-1.119-2.5-2.5-2.5s-2.5,1.119-2.5,2.5v1.538
		C151.385,161.232,152.504,162.352,153.885,162.352z"/>
	<path d="M171.143,162.352c1.381,0,2.5-1.119,2.5-2.5v-1.538c0-1.381-1.119-2.5-2.5-2.5s-2.5,1.119-2.5,2.5v1.538
		C168.643,161.232,169.762,162.352,171.143,162.352z"/>
	<path d="M82.357,178.882c0,1.381,1.119,2.5,2.5,2.5s2.5-1.119,2.5-2.5v-1.538c0-1.381-1.119-2.5-2.5-2.5s-2.5,1.119-2.5,2.5
		V178.882z"/>
	<path d="M99.615,178.882c0,1.381,1.119,2.5,2.5,2.5s2.5-1.119,2.5-2.5v-1.538c0-1.381-1.119-2.5-2.5-2.5s-2.5,1.119-2.5,2.5
		V178.882z"/>
	<path d="M151.385,178.882c0,1.381,1.119,2.5,2.5,2.5s2.5-1.119,2.5-2.5v-1.538c0-1.381-1.119-2.5-2.5-2.5s-2.5,1.119-2.5,2.5
		V178.882z"/>
	<path d="M168.643,178.882c0,1.381,1.119,2.5,2.5,2.5s2.5-1.119,2.5-2.5v-1.538c0-1.381-1.119-2.5-2.5-2.5s-2.5,1.119-2.5,2.5
		V178.882z"/>
	<circle cx="64.98" cy="140.35" r="2.5"/>
</g>
</svg>
