<svg class="svg-icon" style="width: 1em; height: 1em;vertical-align: middle;fill: currentColor;overflow: hidden;" viewBox="0 0 1024 1024" version="1.1" xmlns="http://www.w3.org/2000/svg"><path d="M364.72832 816.96768l-28.24192-133.13536-134.18496-29.66528 27.41248-52.5568 122.85952-6.71744c6.30272-8.20736 20.39296-26.20416 29.19424-34.9952L493.71648 447.9488 260.3264 333.51168 319.41632 274.432l295.89504 51.90656 104.77056-104.77056c12.42112-12.43136 31.7696-18.9952 55.95136-18.9952 16.49152 0 29.62432 3.03104 30.1824 3.16416l6.36928 1.49504 1.88928 6.26176c9.94816 32.92672 3.968 70.04672-14.21824 88.24832l-105.27232 105.2672 51.70688 294.69184-59.07968 59.08992-113.98144-232.448-104.56064 104.58624c-10.99264 10.98752-34.46784 32.6144-43.18208 40.6016l-9.14432 115.23072-52.01408 28.20608z m-128.67584-178.52416l119.56736 26.4192 24.96512 117.73952 14.55104-7.89504 8.87808-111.88224 3.29728-3.01056c0.3328-0.30208 32.75264-29.92128 45.73696-42.9056l126.97088-126.99136 113.98144 232.45312 28.3392-28.35456-51.70688-294.71744 113.60256-113.58208c9.86624-9.86112 15.83616-33.93536 10.27584-59.10016a127.24736 127.24736 0 0 0-18.47808-1.40288c-12.57984 0-29.7216 2.14528-39.936 12.3648l-113.09056 113.10592-295.91552-51.90144-28.34944 28.3392 233.39008 114.432-134.3488 134.35904c-10.25024 10.24-30.12096 36.57216-30.32064 36.82304l-3.1744 4.1984-120.45824 6.58944-7.77728 14.91968z" fill="#1C2021" /></svg>