<?xml version="1.0" encoding="utf-8"?>
<!-- Generator: Adobe Illustrator 18.0.0, SVG Export Plug-In . SVG Version: 6.00 Build 0)  -->
<!DOCTYPE svg PUBLIC "-//W3C//DTD SVG 1.1//EN" "http://www.w3.org/Graphics/SVG/1.1/DTD/svg11.dtd">
<svg version="1.1" id="Icon_Set" xmlns="http://www.w3.org/2000/svg" xmlns:xlink="http://www.w3.org/1999/xlink" x="0px" y="0px"
	 viewBox="0 0 512 512" style="enable-background:new 0 0 512 512;" xml:space="preserve">
<style type="text/css">
	.st0{fill:#F0C48A;}
	.st1{fill:#FD919E;}
	.st2{fill:#E8677D;}
	.st3{fill:#4C4372;}
	.st4{fill:#D3E6F8;}
	.st5{fill:#A4CFF2;}
	.st6{fill:#FFFFFF;}
	.st7{fill:#7BABF1;}
</style>
<g>
	<circle class="st0" cx="256" cy="256" r="207"/>
	<g>
		<g>
			<path class="st3" d="M102.595,151.45H5.863c-3.238,0-5.863-2.624-5.863-5.863s2.625-5.863,5.863-5.863h96.733
				c3.238,0,5.863,2.624,5.863,5.863S105.834,151.45,102.595,151.45z"/>
		</g>
		<g>
			<path class="st3" d="M506.137,151.45h-96.733c-3.238,0-5.863-2.624-5.863-5.863s2.624-5.863,5.863-5.863h96.733
				c3.238,0,5.863,2.624,5.863,5.863S509.376,151.45,506.137,151.45z"/>
		</g>
		<g>
			<path class="st1" d="M282.458,384.653h-52.916c-9.941,0-17.999-8.059-17.999-18v-16.02c0-9.941,8.059-18,17.999-18h52.916
				c9.941,0,18,8.059,18,18v16.02C300.458,376.595,292.399,384.653,282.458,384.653z"/>
		</g>
		<g>
			<path class="st2" d="M282.591,384.646c9.1-0.067,16.579-6.886,17.704-15.696v-20.613c-1.125-8.81-8.604-15.629-17.704-15.696
				V384.646z"/>
		</g>
		<g>
			<rect x="247.118" y="297.02" class="st6" width="17.763" height="35.615"/>
		</g>
		<g>
			<rect x="256" y="297.02" class="st4" width="9.064" height="36.689"/>
		</g>
		<g>
			<path class="st4" d="M283.195,279.021h-54.391c-14.163,0-25.645-11.481-25.645-25.644v-97.64
				c0-14.163,11.481-25.645,25.645-25.645h54.391c14.163,0,25.645,11.482,25.645,25.645v97.64
				C308.84,267.54,297.358,279.021,283.195,279.021z"/>
		</g>
		<g>
			<path class="st5" d="M308.797,254.828V154.285c-0.592-10.598-7.619-19.472-17.237-22.79h-9.424v147.527h1.06
				C296.871,279.021,308.044,268.315,308.797,254.828z"/>
		</g>
		<g>
			<path class="st1" d="M228.805,130.092h54.391v60.593c0,9.949-8.065,18.014-18.014,18.014h-18.363
				c-9.949,0-18.014-8.065-18.014-18.014V130.092z"/>
		</g>
		<g>
			<path class="st2" d="M246.818,208.699h0.114v-77.204h-18.128v59.19C228.805,200.634,236.87,208.699,246.818,208.699z"/>
		</g>
		<g>
			<path class="st5" d="M53.347,127.347L53.347,127.347c7.194,0,13.026,5.832,13.026,13.026v24.056H40.322v-24.056
				C40.322,133.179,46.154,127.347,53.347,127.347z"/>
		</g>
		<g>
			<path class="st7" d="M58.496,162.885h8.006v-22.512c0-5.02-2.844-9.369-7.005-11.544h-1.001V162.885z"/>
		</g>
		<g>
			<path class="st3" d="M66.373,170.292H40.322c-3.238,0-5.863-2.625-5.863-5.863v-24.056c0-10.415,8.473-18.888,18.888-18.888
				c10.415,0,18.888,8.473,18.888,18.888v24.056C72.236,167.667,69.611,170.292,66.373,170.292z M46.184,158.566h14.326v-18.194
				c0-3.95-3.213-7.163-7.163-7.163s-7.163,3.213-7.163,7.163V158.566z"/>
		</g>
		<g>
			<path class="st5" d="M458.653,127.347L458.653,127.347c-7.194,0-13.026,5.832-13.026,13.026v24.056h26.051v-24.056
				C471.678,133.179,465.846,127.347,458.653,127.347z"/>
		</g>
		<g>
			<path class="st7" d="M463.673,162.885h8.006v-22.512c0-5.02-2.844-9.369-7.005-11.544h-1.001V162.885z"/>
		</g>
		<g>
			<path class="st4" d="M458.653,233.004L458.653,233.004c-12.988,0-23.517-10.529-23.517-23.517v-45.058h47.034v45.058
				C482.17,222.475,471.641,233.004,458.653,233.004z"/>
		</g>
		<g>
			<path class="st4" d="M53.347,233.004L53.347,233.004c12.988,0,23.517-10.529,23.517-23.517v-45.058H29.83v45.058
				C29.83,222.475,40.359,233.004,53.347,233.004z"/>
		</g>
		<g>
			<path class="st5" d="M75.229,164.429H57.518v66.728h4.981c5.806-2.455,10.414-7.177,12.73-13.054V164.429z"/>
		</g>
		<g>
			<path class="st5" d="M480.534,164.429h-17.711v66.728h4.981c5.806-2.455,10.414-7.177,12.73-13.054V164.429z"/>
		</g>
		<g>
			<path class="st7" d="M53.348,233.004L53.348,233.004c-3.246,0-6.338-0.658-9.151-1.847v37.336c0,5.054,4.097,9.151,9.151,9.151
				c5.054,0,9.151-4.097,9.151-9.151v-37.336C59.686,232.346,56.593,233.004,53.348,233.004z"/>
		</g>
		<g>
			<path class="st7" d="M458.653,233.004L458.653,233.004c3.246,0,6.338-0.658,9.151-1.847v37.336c0,5.054-4.097,9.151-9.151,9.151
				c-5.054,0-9.151-4.097-9.151-9.151v-37.336C452.314,232.346,455.407,233.004,458.653,233.004z"/>
		</g>
		<g>
			<g>
				<circle class="st6" cx="229.865" cy="244.872" r="9.308"/>
			</g>
			<g>
				<circle class="st6" cx="282.135" cy="244.872" r="9.308"/>
			</g>
		</g>
		<g>
			<circle class="st2" cx="256" cy="358.644" r="14.939"/>
		</g>
		<g>
			<rect x="233.796" y="279.021" class="st7" width="44.409" height="17.999"/>
		</g>
		<g>
			<rect x="76.865" y="180.107" class="st5" width="126.295" height="35.711"/>
		</g>
		<g>
			<rect x="308.84" y="180.107" class="st5" width="126.295" height="35.711"/>
		</g>
		<g>
			<path class="st3" d="M283.195,284.884h-54.39c-17.373,0-31.507-14.134-31.507-31.507v-97.64
				c0-17.373,14.134-31.507,31.507-31.507h54.39c17.373,0,31.507,14.134,31.507,31.507v97.64
				C314.702,270.75,300.568,284.884,283.195,284.884z M228.805,135.954c-10.908,0-19.782,8.874-19.782,19.782v97.64
				c0,10.908,8.874,19.782,19.782,19.782h54.39c10.908,0,19.782-8.874,19.782-19.782v-97.64c0-10.908-8.874-19.782-19.782-19.782
				H228.805z"/>
		</g>
		<g>
			<path class="st3" d="M203.16,221.681H76.865c-3.238,0-5.863-2.625-5.863-5.863v-35.711c0-3.238,2.625-5.863,5.863-5.863H203.16
				c3.238,0,5.863,2.625,5.863,5.863v35.711C209.023,219.056,206.398,221.681,203.16,221.681z M82.727,209.956h114.571v-23.986
				H82.727V209.956z"/>
		</g>
		<g>
			<path class="st3" d="M203.16,204.579H76.865c-3.238,0-5.863-2.625-5.863-5.863s2.625-5.863,5.863-5.863H203.16
				c3.238,0,5.863,2.625,5.863,5.863S206.398,204.579,203.16,204.579z"/>
		</g>
		<g>
			<path class="st3" d="M265.182,214.561h-18.364c-13.165,0-23.876-10.711-23.876-23.876v-60.594c0-3.238,2.625-5.863,5.863-5.863
				h54.39c3.238,0,5.863,2.625,5.863,5.863v60.594C289.058,203.85,278.347,214.561,265.182,214.561z M234.668,135.954v54.731
				c0,6.7,5.451,12.151,12.151,12.151h18.364c6.7,0,12.151-5.451,12.151-12.151v-54.731H234.668z"/>
		</g>
		<g>
			<path class="st3" d="M53.347,283.507c-8.279,0-15.013-6.735-15.013-15.013v-37.336c0-1.966,0.985-3.801,2.624-4.887
				c1.638-1.086,3.712-1.279,5.522-0.513c4.342,1.837,9.392,1.837,13.735,0c1.811-0.767,3.884-0.573,5.522,0.513
				c1.638,1.086,2.624,2.921,2.624,4.887v37.336C68.361,276.772,61.626,283.507,53.347,283.507z M50.059,238.685v29.808
				c0,1.813,1.475,3.288,3.288,3.288c1.813,0,3.289-1.475,3.289-3.288v-29.808C54.464,238.926,52.23,238.926,50.059,238.685z"/>
		</g>
		<g>
			<path class="st3" d="M53.347,238.866c-16.2,0-29.38-13.18-29.38-29.38v-45.058c0-3.238,2.625-5.863,5.863-5.863h47.034
				c3.238,0,5.863,2.625,5.863,5.863v45.058C82.727,225.686,69.547,238.866,53.347,238.866z M35.693,170.292v39.195
				c0,9.735,7.92,17.655,17.655,17.655c9.735,0,17.655-7.92,17.655-17.655v-39.195H35.693z"/>
		</g>
		<g>
			<path class="st3" d="M435.136,221.681H308.84c-3.238,0-5.863-2.625-5.863-5.863v-35.711c0-3.238,2.625-5.863,5.863-5.863h126.296
				c3.238,0,5.863,2.625,5.863,5.863v35.711C440.998,219.056,438.373,221.681,435.136,221.681z M314.702,209.956h114.571v-23.986
				H314.702V209.956z"/>
		</g>
		<g>
			<path class="st3" d="M471.678,170.292h-26.051c-3.238,0-5.863-2.625-5.863-5.863v-24.056c0-10.415,8.473-18.888,18.888-18.888
				c10.415,0,18.888,8.473,18.888,18.888v24.056C477.541,167.667,474.916,170.292,471.678,170.292z M451.49,158.566h14.326v-18.194
				c0-3.95-3.213-7.163-7.163-7.163s-7.163,3.213-7.163,7.163V158.566z"/>
		</g>
		<g>
			<path class="st3" d="M435.136,204.579H308.84c-3.238,0-5.863-2.625-5.863-5.863s2.625-5.863,5.863-5.863h126.296
				c3.238,0,5.863,2.625,5.863,5.863S438.373,204.579,435.136,204.579z"/>
		</g>
		<g>
			<path class="st3" d="M458.653,283.507c-8.279,0-15.014-6.735-15.014-15.013v-37.336c0-1.966,0.985-3.801,2.624-4.887
				c1.638-1.086,3.712-1.279,5.522-0.513c4.343,1.837,9.393,1.837,13.735,0c1.81-0.765,3.884-0.573,5.522,0.513
				c1.638,1.086,2.624,2.921,2.624,4.887v37.336C473.666,276.772,466.931,283.507,458.653,283.507z M455.364,238.685v29.808
				c0,1.813,1.475,3.288,3.289,3.288c1.813,0,3.288-1.475,3.288-3.288v-29.808C459.77,238.926,457.536,238.926,455.364,238.685z"/>
		</g>
		<g>
			<path class="st3" d="M458.653,238.866c-16.2,0-29.38-13.18-29.38-29.38v-45.058c0-3.238,2.625-5.863,5.863-5.863h47.034
				c3.238,0,5.863,2.625,5.863,5.863v45.058C488.032,225.686,474.853,238.866,458.653,238.866z M440.998,170.292v39.195
				c0,9.735,7.92,17.655,17.655,17.655c9.735,0,17.655-7.92,17.655-17.655v-39.195H440.998z"/>
		</g>
		<g>
			<path class="st3" d="M278.204,302.882h-44.408c-3.238,0-5.863-2.625-5.863-5.863v-17.999c0-3.238,2.625-5.863,5.863-5.863h44.408
				c3.238,0,5.863,2.625,5.863,5.863v17.999C284.067,300.257,281.442,302.882,278.204,302.882z M239.658,291.157h32.683v-6.273
				h-32.683V291.157z"/>
		</g>
		<g>
			<path class="st3" d="M264.882,338.497h-17.763c-3.238,0-5.863-2.625-5.863-5.863V297.02c0-3.238,2.625-5.863,5.863-5.863h17.763
				c3.238,0,5.863,2.625,5.863,5.863v35.615C270.744,335.872,268.119,338.497,264.882,338.497z M252.981,326.772h6.038v-23.89
				h-6.038V326.772z"/>
		</g>
		<g>
			<path class="st3" d="M282.458,390.516h-52.916c-13.158,0-23.862-10.705-23.862-23.862v-16.02
				c0-13.158,10.705-23.862,23.862-23.862h52.916c13.158,0,23.862,10.705,23.862,23.862v16.02
				C306.32,379.811,295.616,390.516,282.458,390.516z M229.542,338.497c-6.692,0-12.137,5.445-12.137,12.137v16.02
				c0,6.692,5.445,12.137,12.137,12.137h52.916c6.692,0,12.137-5.445,12.137-12.137v-16.02c0-6.692-5.445-12.137-12.137-12.137
				H229.542z"/>
		</g>
		<g>
			<path class="st3" d="M256,376.28c-9.725,0-17.636-7.912-17.636-17.637c0-9.725,7.911-17.636,17.636-17.636
				c9.725,0,17.636,7.911,17.636,17.636C273.636,368.368,265.725,376.28,256,376.28z M256,352.733c-3.259,0-5.911,2.652-5.911,5.911
				c0,3.26,2.652,5.911,5.911,5.911s5.911-2.652,5.911-5.911C261.911,355.384,259.259,352.733,256,352.733z"/>
		</g>
		<g>
			<g>
				<path class="st3" d="M229.865,260.042c-8.365,0-15.17-6.805-15.17-15.17c0-8.365,6.805-15.17,15.17-15.17
					c8.365,0,15.17,6.805,15.17,15.17C245.035,253.236,238.23,260.042,229.865,260.042z M229.865,241.426
					c-1.9,0-3.445,1.545-3.445,3.445c0,1.899,1.545,3.445,3.445,3.445c1.9,0,3.445-1.545,3.445-3.445
					C233.31,242.972,231.764,241.426,229.865,241.426z"/>
			</g>
			<g>
				<path class="st3" d="M282.136,260.042c-8.365,0-15.17-6.805-15.17-15.17c0-8.365,6.805-15.17,15.17-15.17
					c8.365,0,15.17,6.805,15.17,15.17C297.306,253.236,290.501,260.042,282.136,260.042z M282.136,241.426
					c-1.9,0-3.445,1.545-3.445,3.445c0,1.899,1.545,3.445,3.445,3.445c1.9,0,3.445-1.545,3.445-3.445
					C285.581,242.972,284.035,241.426,282.136,241.426z"/>
			</g>
		</g>
	</g>
</g>
</svg>
